<?xml version="1.0" encoding="utf-8"?>
<svg viewBox="0 0 500 500" xmlns="http://www.w3.org/2000/svg">
  <path d="M 98.021 195.845 C 99.359 384.764 99.024 381.085 123.099 415.524 C 168.239 479.389 292.289 479.389 340.773 415.859 C 362.841 386.769 366.184 373.06 367.522 299.499 L 368.859 233.628 L 326.729 233.628 L 284.598 233.628 L 284.598 285.121 C 284.598 346.98 283.596 353.667 269.886 369.382 C 260.19 380.751 257.181 382.087 239.124 383.425 C 222.406 384.428 217.725 383.425 207.694 376.738 C 187.298 362.694 184.623 349.989 184.623 261.381 L 184.288 183.474 L 275.57 182.804 L 366.518 181.801 L 367.522 151.039 L 368.525 119.943 L 277.242 119.275 L 185.96 118.271 L 184.957 72.128 L 183.953 26.32 L 140.486 26.32 L 97.018 26.32 L 98.021 195.845 Z" style="vector-effect: non-scaling-stroke; fill-rule: nonzero; fill: rgb(68, 68, 68); stroke-width: 0px;"/>
</svg>