<?xml version="1.0" encoding="utf-8"?>
<svg viewBox="96.525 6.599 303.011 487.269" xmlns="http://www.w3.org/2000/svg">
  <path d="M 97.643 195.563 C 99.134 406.144 98.761 402.043 125.596 440.43 C 175.912 511.618 314.186 511.618 368.229 440.804 C 392.827 408.379 396.554 393.098 398.046 311.102 L 399.536 237.677 L 352.575 237.677 L 305.613 237.677 L 305.613 295.075 C 305.613 364.027 304.497 371.481 289.214 388.998 C 278.407 401.671 275.052 403.16 254.925 404.651 C 236.29 405.769 231.072 404.651 219.891 397.198 C 197.156 381.543 194.175 367.381 194.175 268.614 L 193.802 181.773 L 295.549 181.027 L 396.926 179.908 L 398.046 145.619 L 399.164 110.958 L 297.414 110.213 L 195.665 109.093 L 194.547 57.66 L 193.427 6.599 L 144.977 6.599 L 96.525 6.599 L 97.643 195.563 Z" style="vector-effect: non-scaling-stroke; fill-rule: nonzero; stroke-width: 0px;"/>
</svg>