<?xml version="1.0" encoding="utf-8"?>
<svg viewBox="7.473 0.212 494.26 90.951" xmlns="http://www.w3.org/2000/svg">
  <rect x="7.473" y="0.212" width="494.26" height="90.951" style="fill: rgb(29, 129, 162);"/>
  <g transform="matrix(0.521766, 0, 0, 0.521766, 73.440926, -30.700447)" style="">
    <path d="M 602.247 72.701 C 601.847 73.001 601.547 104.101 601.547 141.701 L 601.547 210.001 L 614.047 210.001 L 626.547 210.001 L 626.547 204.301 L 626.547 198.601 L 631.347 203.201 C 639.947 211.801 651.347 214.701 663.547 211.501 C 671.947 209.301 677.447 206.001 683.147 199.701 C 692.847 189.001 697.247 173.701 696.247 154.001 C 695.347 136.801 691.447 126.101 682.747 116.801 C 669.047 102.101 645.947 101.501 632.647 115.401 C 630.747 117.401 628.747 119.001 628.347 119.001 C 627.947 119.001 627.547 108.701 627.547 96.101 C 627.547 76.201 627.347 73.101 625.947 72.601 C 623.847 71.801 603.047 71.801 602.247 72.701 Z M 656.347 130.601 C 661.747 132.801 665.247 136.701 667.647 142.901 C 673.447 158.501 669.347 179.801 659.147 186.801 C 648.347 194.101 635.347 189.501 629.247 176.201 C 626.147 169.401 626.247 151.001 629.347 143.001 C 631.847 136.701 635.447 132.401 639.947 130.401 C 644.147 128.601 651.747 128.701 656.347 130.601 Z" style="vector-effect: non-scaling-stroke; fill-rule: nonzero; stroke-width: 0px; fill: rgb(255, 255, 255);"/>
    <path d="M -104.253 132.701 C -103.853 189.201 -103.953 188.101 -96.753 198.401 C -83.253 217.501 -46.153 217.501 -31.653 198.501 C -25.053 189.801 -24.053 185.701 -23.653 163.701 L -23.253 144.001 L -35.853 144.001 L -48.453 144.001 L -48.453 159.401 C -48.453 177.901 -48.753 179.901 -52.853 184.601 C -55.753 188.001 -56.653 188.401 -62.053 188.801 C -67.053 189.101 -68.453 188.801 -71.453 186.801 C -77.553 182.601 -78.353 178.801 -78.353 152.301 L -78.453 129.001 L -51.153 128.801 L -23.953 128.501 L -23.653 119.301 L -23.353 110.001 L -50.653 109.801 L -77.953 109.501 L -78.253 95.701 L -78.553 82.001 L -91.553 82.001 L -104.553 82.001 L -104.253 132.701 Z" style="vector-effect: non-scaling-stroke; fill-rule: nonzero; stroke-width: 0px; fill: rgb(255, 255, 255);"/>
    <path d="M 409.747 133.201 C 410.047 190.301 409.747 187.801 417.247 198.401 C 425.347 209.901 444.547 215.601 461.047 211.501 C 469.847 209.301 472.647 207.901 478.247 202.701 C 488.147 193.601 490.547 185.401 490.547 161.101 L 490.547 144.001 L 478.047 144.001 L 465.547 144.001 L 465.547 160.201 C 465.547 174.101 465.247 177.101 463.547 180.701 C 460.847 186.801 456.547 189.201 449.147 188.701 C 444.047 188.401 442.847 187.901 440.447 185.201 C 438.947 183.501 437.147 180.401 436.647 178.301 C 436.047 176.101 435.547 163.701 435.547 148.501 C 435.547 134.201 435.247 113.401 434.847 102.201 L 434.247 82.001 L 421.847 82.001 L 409.447 82.001 L 409.747 133.201 Z" style="vector-effect: non-scaling-stroke; fill-rule: nonzero; stroke-width: 0px; fill: rgb(255, 255, 255);"/>
    <path d="M 290.047 106.601 C 280.747 108.301 271.547 113.001 267.347 118.101 C 263.747 122.601 260.547 131.301 260.547 136.701 L 260.547 141.001 L 272.347 141.001 L 284.247 141.001 L 285.447 137.101 C 287.847 129.001 296.347 124.801 307.247 126.501 C 316.547 127.901 321.947 137.501 316.347 142.701 C 312.747 145.901 310.647 146.701 302.047 148.001 C 280.547 151.301 270.747 154.701 264.647 161.101 C 257.747 168.101 254.847 182.501 258.047 193.401 C 259.947 200.001 265.947 206.901 271.747 209.301 C 285.147 214.901 301.947 213.401 313.347 205.501 L 318.347 202.101 L 319.247 205.801 L 320.147 209.501 L 332.347 209.801 L 344.647 210.101 L 344.347 170.301 L 344.047 130.501 L 341.447 124.901 C 336.347 114.001 328.547 108.701 314.647 106.401 C 304.247 104.701 300.447 104.701 290.047 106.601 Z M 315.847 180.901 C 311.947 188.501 305.847 192.301 296.647 192.801 C 291.047 193.101 289.647 192.901 287.347 191.001 C 285.847 189.801 284.147 187.401 283.747 185.701 C 282.847 182.201 283.947 175.401 285.847 173.101 C 287.647 170.901 296.247 167.501 304.547 165.601 C 308.647 164.701 313.447 163.301 315.047 162.601 L 318.047 161.301 L 318.347 168.401 C 318.647 174.501 318.247 176.201 315.847 180.901 Z" style="vector-effect: non-scaling-stroke; fill-rule: nonzero; stroke-width: 0px; fill: rgb(255, 255, 255);"/>
    <path d="M 532.047 106.601 C 514.047 109.901 504.047 119.601 502.247 135.701 L 501.647 141.001 L 513.947 141.001 L 526.247 141.001 L 527.347 137.101 C 528.047 135.001 529.747 132.101 531.147 130.701 C 539.847 122.001 560.547 126.501 560.547 137.001 C 560.547 143.001 555.747 146.201 544.047 148.001 C 516.547 152.301 507.347 156.601 501.847 167.801 C 499.447 172.801 499.147 174.601 499.047 183.501 C 499.047 195.001 500.647 199.301 507.147 205.001 C 511.947 209.201 515.247 210.501 524.847 212.101 C 531.147 213.201 533.747 213.201 538.847 212.101 C 546.447 210.501 552.747 207.901 556.847 204.401 L 560.047 201.701 L 560.947 205.801 L 561.847 210.001 L 574.147 210.001 L 586.547 210.001 L 586.547 173.201 C 586.547 133.401 586.047 128.401 581.047 120.801 C 575.347 112.201 569.447 108.701 556.947 106.501 C 546.547 104.701 542.547 104.701 532.047 106.601 Z M 560.547 167.701 C 560.447 179.301 556.747 186.001 548.147 190.501 C 540.947 194.101 532.747 194.001 528.547 190.201 C 522.347 184.701 524.047 174.701 532.047 170.301 C 534.247 169.101 540.147 167.101 545.047 166.001 C 550.047 164.801 555.147 163.301 556.547 162.501 C 557.947 161.701 559.347 161.101 559.847 161.001 C 560.247 161.001 560.547 164.001 560.547 167.701 Z" style="vector-effect: non-scaling-stroke; fill-rule: nonzero; stroke-width: 0px; fill: rgb(255, 255, 255);"/>
    <path d="M 28.647 108.101 C 24.047 109.501 18.347 113.201 15.247 117.001 L 12.547 120.201 L 12.547 115.101 L 12.547 110.001 L 0.047 110.001 L -12.453 110.001 L -12.453 160.001 L -12.453 210.001 L 0.547 210.001 L 13.547 210.001 L 13.547 181.001 C 13.547 154.501 13.747 151.601 15.547 146.701 C 18.947 137.701 24.647 134.001 37.047 133.101 L 45.047 132.501 L 45.047 120.001 L 45.047 107.501 L 38.547 107.301 C 34.947 107.201 30.547 107.601 28.647 108.101 Z" style="vector-effect: non-scaling-stroke; fill-rule: nonzero; stroke-width: 0px; fill: rgb(255, 255, 255);"/>
    <path d="M 85.747 108.001 C 78.247 109.601 68.747 115.001 63.647 120.601 C 57.447 127.401 54.947 132.301 52.547 142.401 C 48.147 160.501 51.847 183.701 61.047 196.201 C 75.847 216.301 113.447 218.501 131.247 200.201 C 135.647 195.701 140.347 187.901 142.047 182.201 L 142.647 180.001 L 129.847 180.001 L 117.047 180.001 L 115.247 183.201 C 111.647 190.001 101.147 193.701 93.147 191.001 C 88.547 189.501 83.047 184.801 80.847 180.601 C 78.947 176.901 76.547 167.401 77.347 166.601 C 77.647 166.301 92.947 166.001 111.347 166.001 L 144.847 166.001 L 144.147 158.201 C 142.447 139.801 137.447 126.001 129.447 118.201 C 127.047 115.801 122.147 112.501 118.547 110.801 C 112.647 107.901 111.047 107.601 101.047 107.401 C 95.047 107.201 88.147 107.501 85.747 108.001 Z M 107.347 130.101 C 112.647 132.701 116.347 138.001 117.147 144.301 L 117.847 149.001 L 97.747 149.001 L 77.747 149.001 L 78.647 144.901 C 80.347 137.501 84.947 131.301 90.547 129.101 C 94.947 127.401 102.547 127.801 107.347 130.101 Z" style="vector-effect: non-scaling-stroke; fill-rule: nonzero; stroke-width: 0px; fill: rgb(255, 255, 255);"/>
    <path d="M 731.547 108.801 C 723.547 110.901 716.447 115.001 713.147 119.301 C 704.847 130.101 706.047 147.301 715.647 155.501 C 720.547 159.601 731.447 164.301 743.547 167.501 C 762.347 172.401 765.047 173.401 767.847 176.101 C 770.747 179.101 771.347 183.301 769.247 186.101 C 766.447 189.801 761.347 191.401 752.047 191.501 C 744.047 191.501 742.547 191.201 738.347 188.801 C 734.747 186.601 733.347 185.001 731.947 181.501 L 730.247 177.001 L 717.447 177.001 C 702.447 177.001 702.847 176.601 706.647 187.801 C 712.447 205.001 734.347 215.001 760.047 212.201 C 776.247 210.401 785.247 206.001 791.447 197.001 C 795.247 191.401 796.447 186.901 796.547 178.201 C 796.547 170.901 794.647 165.801 790.247 161.101 C 785.847 156.501 779.747 153.901 759.547 148.501 C 736.547 142.301 733.547 140.701 733.547 134.501 C 733.547 131.801 734.247 130.601 736.847 128.801 C 739.647 126.801 741.247 126.501 749.047 126.501 C 760.547 126.501 763.947 128.101 766.847 135.101 L 768.947 140.001 L 781.347 140.001 L 793.847 140.001 L 793.147 134.701 C 791.447 122.201 784.847 114.501 771.847 109.801 C 763.547 106.901 740.847 106.201 731.547 108.801 Z" style="vector-effect: non-scaling-stroke; fill-rule: nonzero; stroke-width: 0px; fill: rgb(255, 255, 255);"/>
    <path d="M 156.747 124.201 C 159.547 132.101 164.347 145.901 167.547 155.001 C 170.747 164.101 175.947 178.701 179.047 187.501 C 182.147 196.301 185.147 205.001 185.647 206.701 L 186.647 210.001 L 200.447 210.001 L 214.347 210.001 L 218.547 198.201 C 220.847 191.801 223.347 184.901 224.047 183.001 C 224.847 181.101 228.147 171.601 231.547 162.001 C 234.947 152.401 239.847 138.401 242.547 131.001 C 247.347 117.401 249.547 111.001 249.547 110.401 C 249.547 110.201 243.447 110.001 236.047 110.001 L 222.547 110.001 L 221.547 112.601 C 220.447 115.301 213.247 138.001 206.447 159.901 C 204.347 166.701 202.247 172.701 201.847 173.101 C 201.347 173.601 199.347 168.701 197.347 162.201 C 195.347 155.801 190.847 141.401 187.347 130.301 L 181.047 110.001 L 166.347 110.001 L 151.747 110.001 L 156.747 124.201 Z" style="vector-effect: non-scaling-stroke; fill-rule: nonzero; stroke-width: 0px; fill: rgb(255, 255, 255);"/>
  </g>
</svg>