<?xml version="1.0" encoding="utf-8"?>
<svg version="1.0" width="939.000000pt" height="175.000000pt" viewBox="0 0 939.000000 175.000000" preserveAspectRatio="xMidYMid meet" xmlns="http://www.w3.org/2000/svg">
  <path d="M 728.7 10.7 C 728.3 11 728 42.1 728 79.7 L 728 148 L 740.5 148 L 753 148 L 753 142.3 L 753 136.6 L 757.8 141.2 C 766.4 149.8 777.8 152.7 790 149.5 C 798.4 147.3 803.9 144 809.6 137.7 C 819.3 127 823.7 111.7 822.7 92 C 821.8 74.8 817.9 64.1 809.2 54.8 C 795.5 40.1 772.4 39.5 759.1 53.4 C 757.2 55.4 755.2 57 754.8 57 C 754.4 57 754 46.7 754 34.1 C 754 14.2 753.8 11.1 752.4 10.6 C 750.3 9.8 729.5 9.8 728.7 10.7 Z M 782.8 68.6 C 788.2 70.8 791.7 74.7 794.1 80.9 C 799.9 96.5 795.8 117.8 785.6 124.8 C 774.8 132.1 761.8 127.5 755.7 114.2 C 752.6 107.4 752.7 89 755.8 81 C 758.3 74.7 761.9 70.4 766.4 68.4 C 770.6 66.6 778.2 66.7 782.8 68.6 Z" style="vector-effect: non-scaling-stroke; fill-rule: nonzero; fill: rgb(68, 68, 68); stroke-width: 0px;"/>
  <path d="M 22.2 70.7 C 22.6 127.2 22.5 126.1 29.7 136.4 C 43.2 155.5 80.3 155.5 94.8 136.5 C 101.4 127.8 102.4 123.7 102.8 101.7 L 103.2 82 L 90.6 82 L 78 82 L 78 97.4 C 78 115.9 77.7 117.9 73.6 122.6 C 70.7 126 69.8 126.4 64.4 126.8 C 59.4 127.1 58 126.8 55 124.8 C 48.9 120.6 48.1 116.8 48.1 90.3 L 48 67 L 75.3 66.8 L 102.5 66.5 L 102.8 57.3 L 103.1 48 L 75.8 47.8 L 48.5 47.5 L 48.2 33.7 L 47.9 20 L 34.9 20 L 21.9 20 L 22.2 70.7 Z" style="vector-effect: non-scaling-stroke; fill-rule: nonzero; fill: rgb(68, 68, 68); stroke-width: 0px;"/>
  <path d="M 536.2 71.2 C 536.5 128.3 536.2 125.8 543.7 136.4 C 551.8 147.9 571 153.6 587.5 149.5 C 596.3 147.3 599.1 145.9 604.7 140.7 C 614.6 131.6 617 123.4 617 99.1 L 617 82 L 604.5 82 L 592 82 L 592 98.2 C 592 112.1 591.7 115.1 590 118.7 C 587.3 124.8 583 127.2 575.6 126.7 C 570.5 126.4 569.3 125.9 566.9 123.2 C 565.4 121.5 563.6 118.4 563.1 116.3 C 562.5 114.1 562 101.7 562 86.5 C 562 72.2 561.7 51.4 561.3 40.2 L 560.7 20 L 548.3 20 L 535.9 20 L 536.2 71.2 Z" style="vector-effect: non-scaling-stroke; fill-rule: nonzero; fill: rgb(68, 68, 68); stroke-width: 0px;"/>
  <path d="M 416.5 44.6 C 407.2 46.3 398 51 393.8 56.1 C 390.2 60.6 387 69.3 387 74.7 L 387 79 L 398.8 79 L 410.7 79 L 411.9 75.1 C 414.3 67 422.8 62.8 433.7 64.5 C 443 65.9 448.4 75.5 442.8 80.7 C 439.2 83.9 437.1 84.7 428.5 86 C 407 89.3 397.2 92.7 391.1 99.1 C 384.2 106.1 381.3 120.5 384.5 131.4 C 386.4 138 392.4 144.9 398.2 147.3 C 411.6 152.9 428.4 151.4 439.8 143.5 L 444.8 140.1 L 445.7 143.8 L 446.6 147.5 L 458.8 147.8 L 471.1 148.1 L 470.8 108.3 L 470.5 68.5 L 467.9 62.9 C 462.8 52 455 46.7 441.1 44.4 C 430.7 42.7 426.9 42.7 416.5 44.6 Z M 442.3 118.9 C 438.4 126.5 432.3 130.3 423.1 130.8 C 417.5 131.1 416.1 130.9 413.8 129 C 412.3 127.8 410.6 125.4 410.2 123.7 C 409.3 120.2 410.4 113.4 412.3 111.1 C 414.1 108.9 422.7 105.5 431 103.6 C 435.1 102.7 439.9 101.3 441.5 100.6 L 444.5 99.3 L 444.8 106.4 C 445.1 112.5 444.7 114.2 442.3 118.9 Z" style="vector-effect: non-scaling-stroke; fill-rule: nonzero; fill: rgb(68, 68, 68); stroke-width: 0px;"/>
  <path d="M 658.5 44.6 C 640.5 47.9 630.5 57.6 628.7 73.7 L 628.1 79 L 640.4 79 L 652.7 79 L 653.8 75.1 C 654.5 73 656.2 70.1 657.6 68.7 C 666.3 60 687 64.5 687 75 C 687 81 682.2 84.2 670.5 86 C 643 90.3 633.8 94.6 628.3 105.8 C 625.9 110.8 625.6 112.6 625.5 121.5 C 625.5 133 627.1 137.3 633.6 143 C 638.4 147.2 641.7 148.5 651.3 150.1 C 657.6 151.2 660.2 151.2 665.3 150.1 C 672.9 148.5 679.2 145.9 683.3 142.4 L 686.5 139.7 L 687.4 143.8 L 688.3 148 L 700.6 148 L 713 148 L 713 111.2 C 713 71.4 712.5 66.4 707.5 58.8 C 701.8 50.2 695.9 46.7 683.4 44.5 C 673 42.7 669 42.7 658.5 44.6 Z M 687 105.7 C 686.9 117.3 683.2 124 674.6 128.5 C 667.4 132.1 659.2 132 655 128.2 C 648.8 122.7 650.5 112.7 658.5 108.3 C 660.7 107.1 666.6 105.1 671.5 104 C 676.5 102.8 681.6 101.3 683 100.5 C 684.4 99.7 685.8 99.1 686.3 99 C 686.7 99 687 102 687 105.7 Z" style="vector-effect: non-scaling-stroke; fill-rule: nonzero; fill: rgb(68, 68, 68); stroke-width: 0px;"/>
  <path d="M 155.1 46.1 C 150.5 47.5 144.8 51.2 141.7 55 L 139 58.2 L 139 53.1 L 139 48 L 126.5 48 L 114 48 L 114 98 L 114 148 L 127 148 L 140 148 L 140 119 C 140 92.5 140.2 89.6 142 84.7 C 145.4 75.7 151.1 72 163.5 71.1 L 171.5 70.5 L 171.5 58 L 171.5 45.5 L 165 45.3 C 161.4 45.2 157 45.6 155.1 46.1 Z" style="vector-effect: non-scaling-stroke; fill-rule: nonzero; fill: rgb(68, 68, 68); stroke-width: 0px;"/>
  <path d="M 212.2 46 C 204.7 47.6 195.2 53 190.1 58.6 C 183.9 65.4 181.4 70.3 179 80.4 C 174.6 98.5 178.3 121.7 187.5 134.2 C 202.3 154.3 239.9 156.5 257.7 138.2 C 262.1 133.7 266.8 125.9 268.5 120.2 L 269.1 118 L 256.3 118 L 243.5 118 L 241.7 121.2 C 238.1 128 227.6 131.7 219.6 129 C 215 127.5 209.5 122.8 207.3 118.6 C 205.4 114.9 203 105.4 203.8 104.6 C 204.1 104.3 219.4 104 237.8 104 L 271.3 104 L 270.6 96.2 C 268.9 77.8 263.9 64 255.9 56.2 C 253.5 53.8 248.6 50.5 245 48.8 C 239.1 45.9 237.5 45.6 227.5 45.4 C 221.5 45.2 214.6 45.5 212.2 46 Z M 233.8 68.1 C 239.1 70.7 242.8 76 243.6 82.3 L 244.3 87 L 224.2 87 L 204.2 87 L 205.1 82.9 C 206.8 75.5 211.4 69.3 217 67.1 C 221.4 65.4 229 65.8 233.8 68.1 Z" style="vector-effect: non-scaling-stroke; fill-rule: nonzero; fill: rgb(68, 68, 68); stroke-width: 0px;"/>
  <path d="M 858 46.8 C 850 48.9 842.9 53 839.6 57.3 C 831.3 68.1 832.5 85.3 842.1 93.5 C 847 97.6 857.9 102.3 870 105.5 C 888.8 110.4 891.5 111.4 894.3 114.1 C 897.2 117.1 897.8 121.3 895.7 124.1 C 892.9 127.8 887.8 129.4 878.5 129.5 C 870.5 129.5 869 129.2 864.8 126.8 C 861.2 124.6 859.8 123 858.4 119.5 L 856.7 115 L 843.9 115 C 828.9 115 829.3 114.6 833.1 125.8 C 838.9 143 860.8 153 886.5 150.2 C 902.7 148.4 911.7 144 917.9 135 C 921.7 129.4 922.9 124.9 923 116.2 C 923 108.9 921.1 103.8 916.7 99.1 C 912.3 94.5 906.2 91.9 886 86.5 C 863 80.3 860 78.7 860 72.5 C 860 69.8 860.7 68.6 863.3 66.8 C 866.1 64.8 867.7 64.5 875.5 64.5 C 887 64.5 890.4 66.1 893.3 73.1 L 895.4 78 L 907.8 78 L 920.3 78 L 919.6 72.7 C 917.9 60.2 911.3 52.5 898.3 47.8 C 890 44.9 867.3 44.2 858 46.8 Z" style="vector-effect: non-scaling-stroke; fill-rule: nonzero; fill: rgb(68, 68, 68); stroke-width: 0px;"/>
  <path d="M 283.2 62.2 C 286 70.1 290.8 83.9 294 93 C 297.2 102.1 302.4 116.7 305.5 125.5 C 308.6 134.3 311.6 143 312.1 144.7 L 313.1 148 L 326.9 148 L 340.8 148 L 345 136.2 C 347.3 129.8 349.8 122.9 350.5 121 C 351.3 119.1 354.6 109.6 358 100 C 361.4 90.4 366.3 76.4 369 69 C 373.8 55.4 376 49 376 48.4 C 376 48.2 369.9 48 362.5 48 L 349 48 L 348 50.6 C 346.9 53.3 339.7 76 332.9 97.9 C 330.8 104.7 328.7 110.7 328.3 111.1 C 327.8 111.6 325.8 106.7 323.8 100.2 C 321.8 93.8 317.3 79.4 313.8 68.3 L 307.5 48 L 292.8 48 L 278.2 48 L 283.2 62.2 Z" style="vector-effect: non-scaling-stroke; fill-rule: nonzero; fill: rgb(68, 68, 68); stroke-width: 0px;"/>
</svg>