<?xml version="1.0" encoding="utf-8"?>
<!-- Generator: Adobe Illustrator 27.2.0, SVG Export Plug-In . SVG Version: 6.00 Build 0)  -->
<svg version="1.1" id="Ebene_1" xmlns="http://www.w3.org/2000/svg" xmlns:xlink="http://www.w3.org/1999/xlink" x="0px" y="0px"
	 viewBox="0 0 1601 273.72" style="enable-background:new 0 0 1601 273.72;" xml:space="preserve">
<style type="text/css">
	.st0{fill:none;stroke:#000000;stroke-width:2;stroke-linecap:round;stroke-miterlimit:10;}
	.st1{fill:none;stroke:#000000;stroke-width:2;stroke-linecap:round;stroke-miterlimit:10;stroke-dasharray:0,3.9942;}
</style>
<g>
	<path d="M234.02,185.51v-77.95h15.08v77.95H234.02z"/>
	<path d="M253.67,156.98c0-18.1,11.25-30.04,29.35-30.04c17.86,0,29,11.83,29,30.04c0,18.09-11.25,30.04-29,30.04
		C264.57,187.02,253.67,174.72,253.67,156.98z M296.82,156.98c0-11.6-4.64-17.28-13.8-17.28c-9.16,0-13.8,5.68-13.8,17.28
		c0,11.6,4.64,17.4,13.8,17.4C292.18,174.38,296.82,168.58,296.82,156.98z"/>
	<path d="M367.52,164.86c-1.62,13.22-12.41,22.16-26.22,22.16c-15.54,0-26.22-10.32-26.22-30.74c0-20.42,10.67-29.35,26.68-29.35
		c14.85,0,24.94,8.47,25.87,21.92h-15.2c-0.81-5.92-5.1-9.39-10.79-9.39c-6.38,0-11.6,4.06-11.6,16.47s5.22,18.44,11.14,18.44
		s10.56-3.36,11.14-9.51H367.52z"/>
	<path d="M406.75,185.51c-0.46-1.39-0.81-3.36-0.93-5.1c-3.6,3.94-9.63,6.61-17.28,6.61c-12.99,0-19.02-6.38-19.02-15.66
		c0-16.47,11.02-18.33,26.21-20.42c7.54-1.04,9.63-2.55,9.63-6.5c0-3.71-3.71-5.92-9.63-5.92c-6.84,0-9.63,3.36-10.32,8.47h-14.04
		c0.23-11.83,6.73-20.07,25.05-20.07c18.1,0,24.36,8.12,24.36,22.5v36.08H406.75z M405.7,157.56c-1.51,1.51-4.18,2.32-9.74,3.36
		c-8.58,1.62-11.37,4.06-11.37,8.93c0,4.29,2.55,6.38,7.31,6.38c7.77,0,13.57-5.68,13.69-12.41L405.7,157.56z"/>
	<path d="M427.57,185.51v-77.95h15.08v77.95H427.57z"/>
	<path d="M511.32,145.72c-0.81-5.57-3.83-7.54-10.67-7.54c-5.69,0-8.93,1.39-8.93,4.76s3.13,4.76,9.28,6.5
		c6.5,1.86,12.64,3.13,17.05,4.87c6.03,2.44,9.4,6.38,9.4,13.8c0,11.83-8.7,18.91-24.94,18.91c-17.52,0-27.26-8.24-27.49-19.84
		h15.54c0,5.34,4.52,8.47,11.83,8.47c5.34,0,10.09-1.62,10.09-5.92c0-4.06-4.29-5.33-9.16-6.5c-9.63-2.32-14.96-3.94-19.02-6.5
		c-5.34-3.36-7.19-7.77-7.19-12.88c0-9.63,6.61-16.94,24.01-16.94c16.47,0,23.9,6.5,24.71,18.79H511.32z"/>
	<path d="M544.4,160.92c0.46,8.58,5.34,14.15,12.76,14.15c4.87,0,9.16-2.44,10.21-6.38h15.54c-3.48,11.72-12.88,18.33-25.05,18.33
		c-19.02,0-28.54-10.44-28.54-31.09c0-17.63,10.09-29,27.61-29s26.79,11.37,26.79,33.99H544.4z M568.18,151.41
		c-0.23-8.47-5.8-12.53-11.71-12.53c-6.03,0-11.02,4.64-11.6,12.53H568.18z"/>
	<path d="M623.15,185.51c-0.46-1.39-0.81-3.36-0.93-5.1c-3.6,3.94-9.63,6.61-17.29,6.61c-12.99,0-19.02-6.38-19.02-15.66
		c0-16.47,11.02-18.33,26.22-20.42c7.54-1.04,9.63-2.55,9.63-6.5c0-3.71-3.71-5.92-9.63-5.92c-6.84,0-9.63,3.36-10.32,8.47h-14.04
		c0.23-11.83,6.73-20.07,25.05-20.07c18.1,0,24.36,8.12,24.36,22.5v36.08H623.15z M622.11,157.56c-1.51,1.51-4.18,2.32-9.74,3.36
		c-8.58,1.62-11.37,4.06-11.37,8.93c0,4.29,2.55,6.38,7.31,6.38c7.77,0,13.57-5.68,13.69-12.41L622.11,157.56z"/>
	<path d="M671.76,185.51v-77.95h15.08v77.95H671.76z"/>
	<path d="M706.85,160.92c0.46,8.58,5.34,14.15,12.76,14.15c4.87,0,9.16-2.44,10.21-6.38h15.54c-3.48,11.72-12.88,18.33-25.06,18.33
		c-19.02,0-28.54-10.44-28.54-31.09c0-17.63,10.09-29,27.61-29s26.79,11.37,26.79,33.99H706.85z M730.62,151.41
		c-0.23-8.47-5.8-12.53-11.71-12.53c-6.03,0-11.02,4.64-11.6,12.53H730.62z"/>
	<path d="M764.66,185.51l-20.42-57.07h16.82l11.95,37.7l12.06-37.7h15.89l-20.53,57.07H764.66z"/>
	<path d="M814.48,160.92c0.46,8.58,5.34,14.15,12.76,14.15c4.87,0,9.16-2.44,10.21-6.38h15.54c-3.48,11.72-12.88,18.33-25.05,18.33
		c-19.02,0-28.54-10.44-28.54-31.09c0-17.63,10.09-29,27.61-29s26.79,11.37,26.79,33.99H814.48z M838.26,151.41
		c-0.23-8.47-5.8-12.53-11.71-12.53c-6.03,0-11.02,4.64-11.6,12.53H838.26z"/>
	<path d="M858.55,185.51v-77.95h15.08v77.95H858.55z"/>
	<path d="M907.96,185.51v-57.07h14.15v6.84c4.99-7.66,10.79-8.35,16.94-8.35h1.97v15.43c-1.39-0.23-2.78-0.35-4.18-0.35
		c-9.28,0-13.8,4.64-13.8,13.8v29.7H907.96z"/>
	<path d="M943.81,121.6v-14.04h15.08v14.04H943.81z M943.81,185.51v-57.07h15.08v57.07H943.81z"/>
	<path d="M999.25,145.72c-0.81-5.57-3.83-7.54-10.67-7.54c-5.68,0-8.93,1.39-8.93,4.76s3.13,4.76,9.28,6.5
		c6.5,1.86,12.64,3.13,17.05,4.87c6.03,2.44,9.39,6.38,9.39,13.8c0,11.83-8.7,18.91-24.94,18.91c-17.52,0-27.26-8.24-27.49-19.84
		h15.54c0,5.34,4.52,8.47,11.83,8.47c5.34,0,10.09-1.62,10.09-5.92c0-4.06-4.29-5.33-9.16-6.5c-9.63-2.32-14.96-3.94-19.02-6.5
		c-5.34-3.36-7.19-7.77-7.19-12.88c0-9.63,6.61-16.94,24.01-16.94c16.47,0,23.89,6.5,24.71,18.79H999.25z"/>
	<path d="M1032.33,160.92c0.46,8.58,5.34,14.15,12.76,14.15c4.87,0,9.16-2.44,10.21-6.38h15.54c-3.48,11.72-12.88,18.33-25.06,18.33
		c-19.02,0-28.54-10.44-28.54-31.09c0-17.63,10.09-29,27.61-29s26.79,11.37,26.79,33.99H1032.33z M1056.11,151.41
		c-0.23-8.47-5.8-12.53-11.71-12.53c-6.03,0-11.02,4.64-11.6,12.53H1056.11z"/>
</g>
<g>
	<path d="M231,257c-0.26,0-0.52-0.1-0.71-0.29c-0.18-0.19-0.29-0.45-0.29-0.71s0.11-0.52,0.29-0.71c0.38-0.37,1.05-0.37,1.42,0
		c0.19,0.19,0.29,0.45,0.29,0.71s-0.1,0.52-0.29,0.71C231.52,256.9,231.26,257,231,257z"/>
	<path d="M1596,256c0-0.55,0.45-1,1-1l0,0c0.55,0,1,0.45,1,1l0,0c0,0.55-0.45,1-1,1l0,0C1596.45,257,1596,256.55,1596,256z
		 M1592.01,256c0-0.55,0.44-1,1-1l0,0c0.55,0,1,0.45,1,1l0,0c0,0.55-0.45,1-1,1l0,0C1592.45,257,1592.01,256.55,1592.01,256z
		 M1588.01,256c0-0.55,0.45-1,1-1l0,0c0.56,0,1,0.45,1,1l0,0c0,0.55-0.44,1-1,1l0,0C1588.46,257,1588.01,256.55,1588.01,256z
		 M1584.02,256c0-0.55,0.45-1,1-1l0,0c0.55,0,1,0.45,1,1l0,0c0,0.55-0.45,1-1,1l0,0C1584.47,257,1584.02,256.55,1584.02,256z
		 M1580.02,256c0-0.55,0.45-1,1.01-1l0,0c0.55,0,0.99,0.45,0.99,1l0,0c0,0.55-0.44,1-0.99,1l0,0
		C1580.47,257,1580.02,256.55,1580.02,256z M1576.03,256c0-0.55,0.45-1,1-1l0,0c0.55,0,1,0.45,1,1l0,0c0,0.55-0.45,1-1,1l0,0
		C1576.48,257,1576.03,256.55,1576.03,256z M1572.04,256c0-0.55,0.44-1,1-1l0,0c0.55,0,1,0.45,1,1l0,0c0,0.55-0.45,1-1,1l0,0
		C1572.48,257,1572.04,256.55,1572.04,256z M1568.04,256c0-0.55,0.45-1,1-1l0,0c0.56,0,1,0.45,1,1l0,0c0,0.55-0.44,1-1,1l0,0
		C1568.49,257,1568.04,256.55,1568.04,256z M1564.05,256c0-0.55,0.45-1,1-1l0,0c0.55,0,1,0.45,1,1l0,0c0,0.55-0.45,1-1,1l0,0
		C1564.5,257,1564.05,256.55,1564.05,256z M1560.05,256c0-0.55,0.45-1,1-1l0,0c0.56,0,1,0.45,1,1l0,0c0,0.55-0.44,1-1,1l0,0
		C1560.5,257,1560.05,256.55,1560.05,256z M1556.06,256c0-0.55,0.45-1,1-1l0,0c0.55,0,1,0.45,1,1l0,0c0,0.55-0.45,1-1,1l0,0
		C1556.51,257,1556.06,256.55,1556.06,256z M1552.06,256c0-0.55,0.45-1,1.01-1l0,0c0.55,0,1,0.45,1,1l0,0c0,0.55-0.45,1-1,1l0,0
		C1552.51,257,1552.06,256.55,1552.06,256z M1548.07,256c0-0.55,0.45-1,1-1l0,0c0.55,0,1,0.45,1,1l0,0c0,0.55-0.45,1-1,1l0,0
		C1548.52,257,1548.07,256.55,1548.07,256z M1544.08,256c0-0.55,0.45-1,1-1l0,0c0.55,0,1,0.45,1,1l0,0c0,0.55-0.45,1-1,1l0,0
		C1544.53,257,1544.08,256.55,1544.08,256z M1540.08,256c0-0.55,0.45-1,1-1l0,0c0.56,0,1,0.45,1,1l0,0c0,0.55-0.44,1-1,1l0,0
		C1540.53,257,1540.08,256.55,1540.08,256z M1536.09,256c0-0.55,0.45-1,1-1l0,0c0.55,0,1,0.45,1,1l0,0c0,0.55-0.45,1-1,1l0,0
		C1536.54,257,1536.09,256.55,1536.09,256z M1532.09,256c0-0.55,0.45-1,1-1l0,0c0.56,0,1,0.45,1,1l0,0c0,0.55-0.44,1-1,1l0,0
		C1532.54,257,1532.09,256.55,1532.09,256z M1528.1,256c0-0.55,0.45-1,1-1l0,0c0.55,0,1,0.45,1,1l0,0c0,0.55-0.45,1-1,1l0,0
		C1528.55,257,1528.1,256.55,1528.1,256z M1524.11,256c0-0.55,0.44-1,1-1l0,0c0.55,0,1,0.45,1,1l0,0c0,0.55-0.45,1-1,1l0,0
		C1524.55,257,1524.11,256.55,1524.11,256z M1520.11,256c0-0.55,0.45-1,1-1l0,0c0.55,0,1,0.45,1,1l0,0c0,0.55-0.45,1-1,1l0,0
		C1520.56,257,1520.11,256.55,1520.11,256z M1516.12,256c0-0.55,0.45-1,1-1l0,0c0.55,0,1,0.45,1,1l0,0c0,0.55-0.45,1-1,1l0,0
		C1516.57,257,1516.12,256.55,1516.12,256z M1512.12,256c0-0.55,0.45-1,1-1l0,0c0.56,0,1,0.45,1,1l0,0c0,0.55-0.44,1-1,1l0,0
		C1512.57,257,1512.12,256.55,1512.12,256z M1508.13,256c0-0.55,0.45-1,1-1l0,0c0.55,0,1,0.45,1,1l0,0c0,0.55-0.45,1-1,1l0,0
		C1508.58,257,1508.13,256.55,1508.13,256z M1504.14,256c0-0.55,0.44-1,1-1l0,0c0.55,0,0.99,0.45,0.99,1l0,0c0,0.55-0.44,1-0.99,1
		l0,0C1504.58,257,1504.14,256.55,1504.14,256z M1500.14,256c0-0.55,0.45-1,1-1l0,0c0.56,0,1,0.45,1,1l0,0c0,0.55-0.44,1-1,1l0,0
		C1500.59,257,1500.14,256.55,1500.14,256z M1496.15,256c0-0.55,0.44-1,1-1l0,0c0.55,0,1,0.45,1,1l0,0c0,0.55-0.45,1-1,1l0,0
		C1496.59,257,1496.15,256.55,1496.15,256z M1492.15,256c0-0.55,0.45-1,1-1l0,0c0.56,0,1,0.45,1,1l0,0c0,0.55-0.44,1-1,1l0,0
		C1492.6,257,1492.15,256.55,1492.15,256z M1488.16,256c0-0.55,0.45-1,1-1l0,0c0.55,0,1,0.45,1,1l0,0c0,0.55-0.45,1-1,1l0,0
		C1488.61,257,1488.16,256.55,1488.16,256z M1484.17,256c0-0.55,0.44-1,0.99-1l0,0c0.56,0,1.01,0.45,1.01,1l0,0
		c0,0.55-0.45,1-1.01,1l0,0C1484.61,257,1484.17,256.55,1484.17,256z M1480.17,256c0-0.55,0.45-1,1-1l0,0c0.55,0,1,0.45,1,1l0,0
		c0,0.55-0.45,1-1,1l0,0C1480.62,257,1480.17,256.55,1480.17,256z M1476.18,256c0-0.55,0.44-1,1-1l0,0c0.55,0,1,0.45,1,1l0,0
		c0,0.55-0.45,1-1,1l0,0C1476.62,257,1476.18,256.55,1476.18,256z M1472.18,256c0-0.55,0.45-1,1-1l0,0c0.56,0,1,0.45,1,1l0,0
		c0,0.55-0.44,1-1,1l0,0C1472.63,257,1472.18,256.55,1472.18,256z M1468.19,256c0-0.55,0.45-1,1-1l0,0c0.55,0,1,0.45,1,1l0,0
		c0,0.55-0.45,1-1,1l0,0C1468.64,257,1468.19,256.55,1468.19,256z M1464.19,256c0-0.55,0.45-1,1.01-1l0,0c0.55,0,0.99,0.45,0.99,1
		l0,0c0,0.55-0.44,1-0.99,1l0,0C1464.64,257,1464.19,256.55,1464.19,256z M1460.2,256c0-0.55,0.45-1,1-1l0,0c0.55,0,1,0.45,1,1l0,0
		c0,0.55-0.45,1-1,1l0,0C1460.65,257,1460.2,256.55,1460.2,256z M1456.21,256c0-0.55,0.44-1,0.99-1l0,0c0.56,0,1.01,0.45,1.01,1l0,0
		c0,0.55-0.45,1-1.01,1l0,0C1456.65,257,1456.21,256.55,1456.21,256z M1452.21,256c0-0.55,0.45-1,1-1l0,0c0.56,0,1,0.45,1,1l0,0
		c0,0.55-0.44,1-1,1l0,0C1452.66,257,1452.21,256.55,1452.21,256z M1448.22,256c0-0.55,0.44-1,1-1l0,0c0.55,0,1,0.45,1,1l0,0
		c0,0.55-0.45,1-1,1l0,0C1448.66,257,1448.22,256.55,1448.22,256z M1444.22,256c0-0.55,0.45-1,1-1l0,0c0.56,0,1,0.45,1,1l0,0
		c0,0.55-0.44,1-1,1l0,0C1444.67,257,1444.22,256.55,1444.22,256z M1440.23,256c0-0.55,0.45-1,1-1l0,0c0.55,0,1,0.45,1,1l0,0
		c0,0.55-0.45,1-1,1l0,0C1440.68,257,1440.23,256.55,1440.23,256z M1436.23,256c0-0.55,0.45-1,1.01-1l0,0c0.55,0,0.99,0.45,0.99,1
		l0,0c0,0.55-0.44,1-0.99,1l0,0C1436.68,257,1436.23,256.55,1436.23,256z M1432.24,256c0-0.55,0.45-1,1-1l0,0c0.55,0,1,0.45,1,1l0,0
		c0,0.55-0.45,1-1,1l0,0C1432.69,257,1432.24,256.55,1432.24,256z M1428.25,256c0-0.55,0.44-1,1-1l0,0c0.55,0,1,0.45,1,1l0,0
		c0,0.55-0.45,1-1,1l0,0C1428.69,257,1428.25,256.55,1428.25,256z M1424.25,256c0-0.55,0.45-1,1-1l0,0c0.56,0,1,0.45,1,1l0,0
		c0,0.55-0.44,1-1,1l0,0C1424.7,257,1424.25,256.55,1424.25,256z M1420.26,256c0-0.55,0.44-1,1-1l0,0c0.55,0,1,0.45,1,1l0,0
		c0,0.55-0.45,1-1,1l0,0C1420.7,257,1420.26,256.55,1420.26,256z M1416.27,256c0-0.55,0.44-1,0.99-1l0,0c0.56,0,1,0.45,1,1l0,0
		c0,0.55-0.44,1-1,1l0,0C1416.71,257,1416.27,256.55,1416.27,256z M1412.27,256c0-0.55,0.45-1,1-1l0,0c0.55,0,1,0.45,1,1l0,0
		c0,0.55-0.45,1-1,1l0,0C1412.72,257,1412.27,256.55,1412.27,256z M1408.28,256c0-0.55,0.44-1,1-1l0,0c0.55,0,1,0.45,1,1l0,0
		c0,0.55-0.45,1-1,1l0,0C1408.72,257,1408.28,256.55,1408.28,256z M1404.28,256c0-0.55,0.45-1,1-1l0,0c0.55,0,1,0.45,1,1l0,0
		c0,0.55-0.45,1-1,1l0,0C1404.73,257,1404.28,256.55,1404.28,256z M1400.29,256c0-0.55,0.45-1,1-1l0,0c0.55,0,1,0.45,1,1l0,0
		c0,0.55-0.45,1-1,1l0,0C1400.74,257,1400.29,256.55,1400.29,256z M1396.29,256c0-0.55,0.45-1,1-1l0,0c0.56,0,1,0.45,1,1l0,0
		c0,0.55-0.44,1-1,1l0,0C1396.74,257,1396.29,256.55,1396.29,256z M1392.3,256c0-0.55,0.45-1,1-1l0,0c0.55,0,1,0.45,1,1l0,0
		c0,0.55-0.45,1-1,1l0,0C1392.75,257,1392.3,256.55,1392.3,256z M1388.31,256c0-0.55,0.44-1,1-1l0,0c0.55,0,1,0.45,1,1l0,0
		c0,0.55-0.45,1-1,1l0,0C1388.75,257,1388.31,256.55,1388.31,256z M1384.31,256c0-0.55,0.45-1,1-1l0,0c0.56,0,1,0.45,1,1l0,0
		c0,0.55-0.44,1-1,1l0,0C1384.76,257,1384.31,256.55,1384.31,256z M1380.32,256c0-0.55,0.44-1,1-1l0,0c0.55,0,1,0.45,1,1l0,0
		c0,0.55-0.45,1-1,1l0,0C1380.76,257,1380.32,256.55,1380.32,256z M1376.32,256c0-0.55,0.45-1,1-1l0,0c0.55,0,1,0.45,1,1l0,0
		c0,0.55-0.45,1-1,1l0,0C1376.77,257,1376.32,256.55,1376.32,256z M1372.33,256c0-0.55,0.45-1,1-1l0,0c0.55,0,1,0.45,1,1l0,0
		c0,0.55-0.45,1-1,1l0,0C1372.78,257,1372.33,256.55,1372.33,256z M1368.34,256c0-0.55,0.44-1,0.99-1l0,0c0.56,0,1.01,0.45,1.01,1
		l0,0c0,0.55-0.45,1-1.01,1l0,0C1368.78,257,1368.34,256.55,1368.34,256z M1364.34,256c0-0.55,0.45-1,1-1l0,0c0.55,0,1,0.45,1,1l0,0
		c0,0.55-0.45,1-1,1l0,0C1364.79,257,1364.34,256.55,1364.34,256z M1360.35,256c0-0.55,0.44-1,1-1l0,0c0.55,0,1,0.45,1,1l0,0
		c0,0.55-0.45,1-1,1l0,0C1360.79,257,1360.35,256.55,1360.35,256z M1356.35,256c0-0.55,0.45-1,1-1l0,0c0.56,0,1,0.45,1,1l0,0
		c0,0.55-0.44,1-1,1l0,0C1356.8,257,1356.35,256.55,1356.35,256z M1352.36,256c0-0.55,0.44-1,1-1l0,0c0.55,0,1,0.45,1,1l0,0
		c0,0.55-0.45,1-1,1l0,0C1352.8,257,1352.36,256.55,1352.36,256z M1348.36,256c0-0.55,0.45-1,1.01-1l0,0c0.55,0,0.99,0.45,0.99,1
		l0,0c0,0.55-0.44,1-0.99,1l0,0C1348.81,257,1348.36,256.55,1348.36,256z M1344.37,256c0-0.55,0.45-1,1-1l0,0c0.55,0,1,0.45,1,1l0,0
		c0,0.55-0.45,1-1,1l0,0C1344.82,257,1344.37,256.55,1344.37,256z M1340.38,256c0-0.55,0.44-1,0.99-1l0,0c0.56,0,1.01,0.45,1.01,1
		l0,0c0,0.55-0.45,1-1.01,1l0,0C1340.82,257,1340.38,256.55,1340.38,256z M1336.38,256c0-0.55,0.45-1,1-1l0,0c0.55,0,1,0.45,1,1l0,0
		c0,0.55-0.45,1-1,1l0,0C1336.83,257,1336.38,256.55,1336.38,256z M1332.39,256c0-0.55,0.44-1,1-1l0,0c0.55,0,1,0.45,1,1l0,0
		c0,0.55-0.45,1-1,1l0,0C1332.83,257,1332.39,256.55,1332.39,256z M1328.39,256c0-0.55,0.45-1,1-1l0,0c0.56,0,1,0.45,1,1l0,0
		c0,0.55-0.44,1-1,1l0,0C1328.84,257,1328.39,256.55,1328.39,256z M1324.4,256c0-0.55,0.45-1,1-1l0,0c0.55,0,1,0.45,1,1l0,0
		c0,0.55-0.45,1-1,1l0,0C1324.85,257,1324.4,256.55,1324.4,256z M1320.4,256c0-0.55,0.45-1,1.01-1l0,0c0.55,0,0.99,0.45,0.99,1l0,0
		c0,0.55-0.44,1-0.99,1l0,0C1320.85,257,1320.4,256.55,1320.4,256z M1316.41,256c0-0.55,0.45-1,1-1l0,0c0.55,0,1,0.45,1,1l0,0
		c0,0.55-0.45,1-1,1l0,0C1316.86,257,1316.41,256.55,1316.41,256z M1312.42,256c0-0.55,0.44-1,1-1l0,0c0.55,0,1,0.45,1,1l0,0
		c0,0.55-0.45,1-1,1l0,0C1312.86,257,1312.42,256.55,1312.42,256z M1308.42,256c0-0.55,0.45-1,1-1l0,0c0.56,0,1,0.45,1,1l0,0
		c0,0.55-0.44,1-1,1l0,0C1308.87,257,1308.42,256.55,1308.42,256z M1304.43,256c0-0.55,0.44-1,1-1l0,0c0.55,0,1,0.45,1,1l0,0
		c0,0.55-0.45,1-1,1l0,0C1304.87,257,1304.43,256.55,1304.43,256z M1300.44,256c0-0.55,0.44-1,0.99-1l0,0c0.56,0,1.01,0.45,1.01,1
		l0,0c0,0.55-0.45,1-1.01,1l0,0C1300.88,257,1300.44,256.55,1300.44,256z M1296.44,256c0-0.55,0.45-1,1-1l0,0c0.55,0,1,0.45,1,1l0,0
		c0,0.55-0.45,1-1,1l0,0C1296.89,257,1296.44,256.55,1296.44,256z M1292.45,256c0-0.55,0.44-1,1-1l0,0c0.55,0,1,0.45,1,1l0,0
		c0,0.55-0.45,1-1,1l0,0C1292.89,257,1292.45,256.55,1292.45,256z M1288.45,256c0-0.55,0.45-1,1-1l0,0c0.55,0,1,0.45,1,1l0,0
		c0,0.55-0.45,1-1,1l0,0C1288.9,257,1288.45,256.55,1288.45,256z M1284.46,256c0-0.55,0.45-1,1-1l0,0c0.55,0,1,0.45,1,1l0,0
		c0,0.55-0.45,1-1,1l0,0C1284.91,257,1284.46,256.55,1284.46,256z M1280.46,256c0-0.55,0.45-1,1-1l0,0c0.56,0,1,0.45,1,1l0,0
		c0,0.55-0.44,1-1,1l0,0C1280.91,257,1280.46,256.55,1280.46,256z M1276.47,256c0-0.55,0.45-1,1-1l0,0c0.55,0,1,0.45,1,1l0,0
		c0,0.55-0.45,1-1,1l0,0C1276.92,257,1276.47,256.55,1276.47,256z M1272.48,256c0-0.55,0.44-1,1-1l0,0c0.55,0,1,0.45,1,1l0,0
		c0,0.55-0.45,1-1,1l0,0C1272.92,257,1272.48,256.55,1272.48,256z M1268.48,256c0-0.55,0.45-1,1-1l0,0c0.56,0,1,0.45,1,1l0,0
		c0,0.55-0.44,1-1,1l0,0C1268.93,257,1268.48,256.55,1268.48,256z M1264.49,256c0-0.55,0.44-1,1-1l0,0c0.55,0,1,0.45,1,1l0,0
		c0,0.55-0.45,1-1,1l0,0C1264.93,257,1264.49,256.55,1264.49,256z M1260.49,256c0-0.55,0.45-1,1-1l0,0c0.55,0,1,0.45,1,1l0,0
		c0,0.55-0.45,1-1,1l0,0C1260.94,257,1260.49,256.55,1260.49,256z M1256.5,256c0-0.55,0.45-1,1-1l0,0c0.55,0,1,0.45,1,1l0,0
		c0,0.55-0.45,1-1,1l0,0C1256.95,257,1256.5,256.55,1256.5,256z M1252.5,256c0-0.55,0.45-1,1-1l0,0c0.56,0,1.01,0.45,1.01,1l0,0
		c0,0.55-0.45,1-1.01,1l0,0C1252.95,257,1252.5,256.55,1252.5,256z M1248.51,256c0-0.55,0.45-1,1-1l0,0c0.55,0,1,0.45,1,1l0,0
		c0,0.55-0.45,1-1,1l0,0C1248.96,257,1248.51,256.55,1248.51,256z M1244.52,256c0-0.55,0.44-1,1-1l0,0c0.55,0,1,0.45,1,1l0,0
		c0,0.55-0.45,1-1,1l0,0C1244.96,257,1244.52,256.55,1244.52,256z M1240.52,256c0-0.55,0.45-1,1-1l0,0c0.56,0,1,0.45,1,1l0,0
		c0,0.55-0.44,1-1,1l0,0C1240.97,257,1240.52,256.55,1240.52,256z M1236.53,256c0-0.55,0.44-1,1-1l0,0c0.55,0,1,0.45,1,1l0,0
		c0,0.55-0.45,1-1,1l0,0C1236.97,257,1236.53,256.55,1236.53,256z M1232.53,256c0-0.55,0.45-1,1-1l0,0c0.56,0,1,0.45,1,1l0,0
		c0,0.55-0.44,1-1,1l0,0C1232.98,257,1232.53,256.55,1232.53,256z M1228.54,256c0-0.55,0.45-1,1-1l0,0c0.55,0,1,0.45,1,1l0,0
		c0,0.55-0.45,1-1,1l0,0C1228.99,257,1228.54,256.55,1228.54,256z M1224.55,256c0-0.55,0.44-1,0.99-1l0,0c0.56,0,1.01,0.45,1.01,1
		l0,0c0,0.55-0.45,1-1.01,1l0,0C1224.99,257,1224.55,256.55,1224.55,256z M1220.55,256c0-0.55,0.45-1,1-1l0,0c0.55,0,1,0.45,1,1l0,0
		c0,0.55-0.45,1-1,1l0,0C1221,257,1220.55,256.55,1220.55,256z M1216.56,256c0-0.55,0.44-1,1-1l0,0c0.55,0,1,0.45,1,1l0,0
		c0,0.55-0.45,1-1,1l0,0C1217,257,1216.56,256.55,1216.56,256z M1212.56,256c0-0.55,0.45-1,1-1l0,0c0.56,0,1,0.45,1,1l0,0
		c0,0.55-0.44,1-1,1l0,0C1213.01,257,1212.56,256.55,1212.56,256z M1208.57,256c0-0.55,0.45-1,1-1l0,0c0.55,0,1,0.45,1,1l0,0
		c0,0.55-0.45,1-1,1l0,0C1209.02,257,1208.57,256.55,1208.57,256z M1204.58,256c0-0.55,0.44-1,1-1l0,0c0.55,0,0.99,0.45,0.99,1l0,0
		c0,0.55-0.44,1-0.99,1l0,0C1205.02,257,1204.58,256.55,1204.58,256z M1200.58,256c0-0.55,0.45-1,1-1l0,0c0.55,0,1,0.45,1,1l0,0
		c0,0.55-0.45,1-1,1l0,0C1201.03,257,1200.58,256.55,1200.58,256z M1196.59,256c0-0.55,0.44-1,1-1l0,0c0.55,0,1,0.45,1,1l0,0
		c0,0.55-0.45,1-1,1l0,0C1197.03,257,1196.59,256.55,1196.59,256z M1192.59,256c0-0.55,0.45-1,1-1l0,0c0.56,0,1,0.45,1,1l0,0
		c0,0.55-0.44,1-1,1l0,0C1193.04,257,1192.59,256.55,1192.59,256z M1188.6,256c0-0.55,0.45-1,1-1l0,0c0.55,0,1,0.45,1,1l0,0
		c0,0.55-0.45,1-1,1l0,0C1189.05,257,1188.6,256.55,1188.6,256z M1184.61,256c0-0.55,0.44-1,0.99-1l0,0c0.56,0,1.01,0.45,1.01,1l0,0
		c0,0.55-0.45,1-1.01,1l0,0C1185.05,257,1184.61,256.55,1184.61,256z M1180.61,256c0-0.55,0.45-1,1-1l0,0c0.55,0,1,0.45,1,1l0,0
		c0,0.55-0.45,1-1,1l0,0C1181.06,257,1180.61,256.55,1180.61,256z M1176.62,256c0-0.55,0.44-1,1-1l0,0c0.55,0,1,0.45,1,1l0,0
		c0,0.55-0.45,1-1,1l0,0C1177.06,257,1176.62,256.55,1176.62,256z M1172.62,256c0-0.55,0.45-1,1-1l0,0c0.55,0,1,0.45,1,1l0,0
		c0,0.55-0.45,1-1,1l0,0C1173.07,257,1172.62,256.55,1172.62,256z M1168.63,256c0-0.55,0.45-1,1-1l0,0c0.55,0,1,0.45,1,1l0,0
		c0,0.55-0.45,1-1,1l0,0C1169.08,257,1168.63,256.55,1168.63,256z M1164.63,256c0-0.55,0.45-1,1-1l0,0c0.56,0,1,0.45,1,1l0,0
		c0,0.55-0.44,1-1,1l0,0C1165.08,257,1164.63,256.55,1164.63,256z M1160.64,256c0-0.55,0.45-1,1-1l0,0c0.55,0,1,0.45,1,1l0,0
		c0,0.55-0.45,1-1,1l0,0C1161.09,257,1160.64,256.55,1160.64,256z M1156.65,256c0-0.55,0.44-1,0.99-1l0,0c0.56,0,1.01,0.45,1.01,1
		l0,0c0,0.55-0.45,1-1.01,1l0,0C1157.09,257,1156.65,256.55,1156.65,256z M1152.65,256c0-0.55,0.45-1,1-1l0,0c0.55,0,1,0.45,1,1l0,0
		c0,0.55-0.45,1-1,1l0,0C1153.1,257,1152.65,256.55,1152.65,256z M1148.66,256c0-0.55,0.44-1,1-1l0,0c0.55,0,1,0.45,1,1l0,0
		c0,0.55-0.45,1-1,1l0,0C1149.1,257,1148.66,256.55,1148.66,256z M1144.66,256c0-0.55,0.45-1,1-1l0,0c0.55,0,1,0.45,1,1l0,0
		c0,0.55-0.45,1-1,1l0,0C1145.11,257,1144.66,256.55,1144.66,256z M1140.67,256c0-0.55,0.45-1,1-1l0,0c0.55,0,1,0.45,1,1l0,0
		c0,0.55-0.45,1-1,1l0,0C1141.12,257,1140.67,256.55,1140.67,256z M1136.67,256c0-0.55,0.45-1,1-1l0,0c0.56,0,1,0.45,1,1l0,0
		c0,0.55-0.44,1-1,1l0,0C1137.12,257,1136.67,256.55,1136.67,256z M1132.68,256c0-0.55,0.45-1,1-1l0,0c0.55,0,1,0.45,1,1l0,0
		c0,0.55-0.45,1-1,1l0,0C1133.13,257,1132.68,256.55,1132.68,256z M1128.69,256c0-0.55,0.44-1,1-1l0,0c0.55,0,1,0.45,1,1l0,0
		c0,0.55-0.45,1-1,1l0,0C1129.13,257,1128.69,256.55,1128.69,256z M1124.69,256c0-0.55,0.45-1,1-1l0,0c0.56,0,1,0.45,1,1l0,0
		c0,0.55-0.44,1-1,1l0,0C1125.14,257,1124.69,256.55,1124.69,256z M1120.7,256c0-0.55,0.44-1,1-1l0,0c0.55,0,1,0.45,1,1l0,0
		c0,0.55-0.45,1-1,1l0,0C1121.14,257,1120.7,256.55,1120.7,256z M1116.7,256c0-0.55,0.45-1,1-1l0,0c0.56,0,1,0.45,1,1l0,0
		c0,0.55-0.44,1-1,1l0,0C1117.15,257,1116.7,256.55,1116.7,256z M1112.71,256c0-0.55,0.45-1,1-1l0,0c0.55,0,1,0.45,1,1l0,0
		c0,0.55-0.45,1-1,1l0,0C1113.16,257,1112.71,256.55,1112.71,256z M1108.72,256c0-0.55,0.44-1,1-1l0,0c0.55,0,1,0.45,1,1l0,0
		c0,0.55-0.45,1-1,1l0,0C1109.16,257,1108.72,256.55,1108.72,256z M1104.72,256c0-0.55,0.45-1,1-1l0,0c0.55,0,1,0.45,1,1l0,0
		c0,0.55-0.45,1-1,1l0,0C1105.17,257,1104.72,256.55,1104.72,256z M1100.73,256c0-0.55,0.45-1,1-1l0,0c0.55,0,1,0.45,1,1l0,0
		c0,0.55-0.45,1-1,1l0,0C1101.18,257,1100.73,256.55,1100.73,256z M1096.73,256c0-0.55,0.45-1,1-1l0,0c0.56,0,1,0.45,1,1l0,0
		c0,0.55-0.44,1-1,1l0,0C1097.18,257,1096.73,256.55,1096.73,256z M1092.74,256c0-0.55,0.45-1,1-1l0,0c0.55,0,1,0.45,1,1l0,0
		c0,0.55-0.45,1-1,1l0,0C1093.19,257,1092.74,256.55,1092.74,256z M1088.75,256c0-0.55,0.44-1,1-1l0,0c0.55,0,1,0.45,1,1l0,0
		c0,0.55-0.45,1-1,1l0,0C1089.19,257,1088.75,256.55,1088.75,256z M1084.75,256c0-0.55,0.45-1,1-1l0,0c0.55,0,1,0.45,1,1l0,0
		c0,0.55-0.45,1-1,1l0,0C1085.2,257,1084.75,256.55,1084.75,256z M1080.76,256c0-0.55,0.44-1,1-1l0,0c0.55,0,1,0.45,1,1l0,0
		c0,0.55-0.45,1-1,1l0,0C1081.2,257,1080.76,256.55,1080.76,256z M1076.76,256c0-0.55,0.45-1,1-1l0,0c0.55,0,1,0.45,1,1l0,0
		c0,0.55-0.45,1-1,1l0,0C1077.21,257,1076.76,256.55,1076.76,256z M1072.77,256c0-0.55,0.45-1,1-1l0,0c0.55,0,1,0.45,1,1l0,0
		c0,0.55-0.45,1-1,1l0,0C1073.22,257,1072.77,256.55,1072.77,256z M1068.78,256c0-0.55,0.44-1,0.99-1l0,0c0.56,0,1.01,0.45,1.01,1
		l0,0c0,0.55-0.45,1-1.01,1l0,0C1069.22,257,1068.78,256.55,1068.78,256z M1064.78,256c0-0.55,0.45-1,1-1l0,0c0.55,0,1,0.45,1,1l0,0
		c0,0.55-0.45,1-1,1l0,0C1065.23,257,1064.78,256.55,1064.78,256z M1060.79,256c0-0.55,0.44-1,1-1l0,0c0.55,0,1,0.45,1,1l0,0
		c0,0.55-0.45,1-1,1l0,0C1061.23,257,1060.79,256.55,1060.79,256z M1056.79,256c0-0.55,0.45-1,1-1l0,0c0.55,0,1,0.45,1,1l0,0
		c0,0.55-0.45,1-1,1l0,0C1057.24,257,1056.79,256.55,1056.79,256z M1052.8,256c0-0.55,0.44-1,1-1l0,0c0.55,0,1,0.45,1,1l0,0
		c0,0.55-0.45,1-1,1l0,0C1053.24,257,1052.8,256.55,1052.8,256z M1048.8,256c0-0.55,0.45-1,1-1l0,0c0.56,0,1,0.45,1,1l0,0
		c0,0.55-0.44,1-1,1l0,0C1049.25,257,1048.8,256.55,1048.8,256z M1044.81,256c0-0.55,0.45-1,1-1l0,0c0.55,0,1,0.45,1,1l0,0
		c0,0.55-0.45,1-1,1l0,0C1045.26,257,1044.81,256.55,1044.81,256z M1040.82,256c0-0.55,0.44-1,0.99-1l0,0c0.56,0,1.01,0.45,1.01,1
		l0,0c0,0.55-0.45,1-1.01,1l0,0C1041.26,257,1040.82,256.55,1040.82,256z M1036.82,256c0-0.55,0.45-1,1-1l0,0c0.55,0,1,0.45,1,1l0,0
		c0,0.55-0.45,1-1,1l0,0C1037.27,257,1036.82,256.55,1036.82,256z M1032.83,256c0-0.55,0.44-1,1-1l0,0c0.55,0,1,0.45,1,1l0,0
		c0,0.55-0.45,1-1,1l0,0C1033.27,257,1032.83,256.55,1032.83,256z M1028.83,256c0-0.55,0.45-1,1-1l0,0c0.55,0,1,0.45,1,1l0,0
		c0,0.55-0.45,1-1,1l0,0C1029.28,257,1028.83,256.55,1028.83,256z M1024.84,256c0-0.55,0.45-1,1-1l0,0c0.55,0,1,0.45,1,1l0,0
		c0,0.55-0.45,1-1,1l0,0C1025.29,257,1024.84,256.55,1024.84,256z M1020.84,256c0-0.55,0.45-1,1.01-1l0,0c0.55,0,0.99,0.45,0.99,1
		l0,0c0,0.55-0.44,1-0.99,1l0,0C1021.29,257,1020.84,256.55,1020.84,256z M1016.85,256c0-0.55,0.45-1,1-1l0,0c0.55,0,1,0.45,1,1l0,0
		c0,0.55-0.45,1-1,1l0,0C1017.3,257,1016.85,256.55,1016.85,256z M1012.86,256c0-0.55,0.44-1,1-1l0,0c0.55,0,1,0.45,1,1l0,0
		c0,0.55-0.45,1-1,1l0,0C1013.3,257,1012.86,256.55,1012.86,256z M1008.86,256c0-0.55,0.45-1,1-1l0,0c0.56,0,1,0.45,1,1l0,0
		c0,0.55-0.44,1-1,1l0,0C1009.31,257,1008.86,256.55,1008.86,256z M1004.87,256c0-0.55,0.45-1,1-1l0,0c0.55,0,1,0.45,1,1l0,0
		c0,0.55-0.45,1-1,1l0,0C1005.32,257,1004.87,256.55,1004.87,256z M1000.87,256c0-0.55,0.45-1,1-1l0,0c0.56,0,1,0.45,1,1l0,0
		c0,0.55-0.44,1-1,1l0,0C1001.32,257,1000.87,256.55,1000.87,256z M996.88,256c0-0.55,0.45-1,1-1l0,0c0.55,0,1,0.45,1,1l0,0
		c0,0.55-0.45,1-1,1l0,0C997.33,257,996.88,256.55,996.88,256z M992.88,256c0-0.55,0.45-1,1.01-1l0,0c0.55,0,1,0.45,1,1l0,0
		c0,0.55-0.45,1-1,1l0,0C993.33,257,992.88,256.55,992.88,256z M988.89,256c0-0.55,0.45-1,1-1l0,0c0.55,0,1,0.45,1,1l0,0
		c0,0.55-0.45,1-1,1l0,0C989.34,257,988.89,256.55,988.89,256z M984.9,256c0-0.55,0.45-1,1-1l0,0c0.55,0,1,0.45,1,1l0,0
		c0,0.55-0.45,1-1,1l0,0C985.35,257,984.9,256.55,984.9,256z M980.9,256c0-0.55,0.45-1,1-1l0,0c0.56,0,1,0.45,1,1l0,0
		c0,0.55-0.44,1-1,1l0,0C981.35,257,980.9,256.55,980.9,256z M976.91,256c0-0.55,0.45-1,1-1l0,0c0.55,0,1,0.45,1,1l0,0
		c0,0.55-0.45,1-1,1l0,0C977.36,257,976.91,256.55,976.91,256z M972.91,256c0-0.55,0.45-1,1-1l0,0c0.56,0,1,0.45,1,1l0,0
		c0,0.55-0.44,1-1,1l0,0C973.36,257,972.91,256.55,972.91,256z M968.92,256c0-0.55,0.45-1,1-1l0,0c0.55,0,1,0.45,1,1l0,0
		c0,0.55-0.45,1-1,1l0,0C969.37,257,968.92,256.55,968.92,256z M964.93,256c0-0.55,0.44-1,1-1l0,0c0.55,0,1,0.45,1,1l0,0
		c0,0.55-0.45,1-1,1l0,0C965.37,257,964.93,256.55,964.93,256z M960.93,256c0-0.55,0.45-1,1-1l0,0c0.55,0,1,0.45,1,1l0,0
		c0,0.55-0.45,1-1,1l0,0C961.38,257,960.93,256.55,960.93,256z M956.94,256c0-0.55,0.45-1,1-1l0,0c0.55,0,1,0.45,1,1l0,0
		c0,0.55-0.45,1-1,1l0,0C957.39,257,956.94,256.55,956.94,256z M952.94,256c0-0.55,0.45-1,1-1l0,0c0.56,0,1,0.45,1,1l0,0
		c0,0.55-0.44,1-1,1l0,0C953.39,257,952.94,256.55,952.94,256z M948.95,256c0-0.55,0.45-1,1-1l0,0c0.55,0,1,0.45,1,1l0,0
		c0,0.55-0.45,1-1,1l0,0C949.4,257,948.95,256.55,948.95,256z M944.95,256c0-0.55,0.45-1,1.01-1l0,0c0.55,0,0.99,0.45,0.99,1l0,0
		c0,0.55-0.44,1-0.99,1l0,0C945.4,257,944.95,256.55,944.95,256z M940.96,256c0-0.55,0.45-1,1-1l0,0c0.56,0,1,0.45,1,1l0,0
		c0,0.55-0.44,1-1,1l0,0C941.41,257,940.96,256.55,940.96,256z M936.97,256c0-0.55,0.44-1,1-1l0,0c0.55,0,1,0.45,1,1l0,0
		c0,0.55-0.45,1-1,1l0,0C937.41,257,936.97,256.55,936.97,256z M932.97,256c0-0.55,0.45-1,1-1l0,0c0.56,0,1,0.45,1,1l0,0
		c0,0.55-0.44,1-1,1l0,0C933.42,257,932.97,256.55,932.97,256z M928.98,256c0-0.55,0.45-1,1-1l0,0c0.55,0,1,0.45,1,1l0,0
		c0,0.55-0.45,1-1,1l0,0C929.43,257,928.98,256.55,928.98,256z M924.99,256c0-0.55,0.44-1,0.99-1l0,0c0.56,0,1.01,0.45,1.01,1l0,0
		c0,0.55-0.45,1-1.01,1l0,0C925.43,257,924.99,256.55,924.99,256z M920.99,256c0-0.55,0.45-1,1-1l0,0c0.55,0,1,0.45,1,1l0,0
		c0,0.55-0.45,1-1,1l0,0C921.44,257,920.99,256.55,920.99,256z M917,256c0-0.55,0.44-1,1-1l0,0c0.55,0,1,0.45,1,1l0,0
		c0,0.55-0.45,1-1,1l0,0C917.44,257,917,256.55,917,256z M913,256c0-0.55,0.45-1,1-1l0,0c0.56,0,1,0.45,1,1l0,0c0,0.55-0.44,1-1,1
		l0,0C913.45,257,913,256.55,913,256z M909.01,256c0-0.55,0.45-1,1-1l0,0c0.55,0,1,0.45,1,1l0,0c0,0.55-0.45,1-1,1l0,0
		C909.46,257,909.01,256.55,909.01,256z M905.01,256c0-0.55,0.45-1,1.01-1l0,0c0.55,0,0.99,0.45,0.99,1l0,0c0,0.55-0.44,1-0.99,1
		l0,0C905.46,257,905.01,256.55,905.01,256z M901.02,256c0-0.55,0.45-1,1-1l0,0c0.55,0,1,0.45,1,1l0,0c0,0.55-0.45,1-1,1l0,0
		C901.47,257,901.02,256.55,901.02,256z M897.03,256c0-0.55,0.44-1,0.99-1l0,0c0.56,0,1.01,0.45,1.01,1l0,0c0,0.55-0.45,1-1.01,1
		l0,0C897.47,257,897.03,256.55,897.03,256z M893.03,256c0-0.55,0.45-1,1-1l0,0c0.56,0,1,0.45,1,1l0,0c0,0.55-0.44,1-1,1l0,0
		C893.48,257,893.03,256.55,893.03,256z M889.04,256c0-0.55,0.44-1,1-1l0,0c0.55,0,1,0.45,1,1l0,0c0,0.55-0.45,1-1,1l0,0
		C889.48,257,889.04,256.55,889.04,256z M885.04,256c0-0.55,0.45-1,1-1l0,0c0.56,0,1,0.45,1,1l0,0c0,0.55-0.44,1-1,1l0,0
		C885.49,257,885.04,256.55,885.04,256z M881.05,256c0-0.55,0.45-1,1-1l0,0c0.55,0,1,0.45,1,1l0,0c0,0.55-0.45,1-1,1l0,0
		C881.5,257,881.05,256.55,881.05,256z M877.05,256c0-0.55,0.45-1,1.01-1l0,0c0.55,0,0.99,0.45,0.99,1l0,0c0,0.55-0.44,1-0.99,1l0,0
		C877.5,257,877.05,256.55,877.05,256z M873.06,256c0-0.55,0.45-1,1-1l0,0c0.55,0,1,0.45,1,1l0,0c0,0.55-0.45,1-1,1l0,0
		C873.51,257,873.06,256.55,873.06,256z M869.07,256c0-0.55,0.45-1,1-1l0,0c0.55,0,1,0.45,1,1l0,0c0,0.55-0.45,1-1,1l0,0
		C869.52,257,869.07,256.55,869.07,256z M865.07,256c0-0.55,0.45-1,1-1l0,0c0.56,0,1,0.45,1,1l0,0c0,0.55-0.44,1-1,1l0,0
		C865.52,257,865.07,256.55,865.07,256z M861.08,256c0-0.55,0.44-1,1-1l0,0c0.55,0,1,0.45,1,1l0,0c0,0.55-0.45,1-1,1l0,0
		C861.52,257,861.08,256.55,861.08,256z M857.08,256c0-0.55,0.45-1,1-1l0,0c0.56,0,1,0.45,1,1l0,0c0,0.55-0.44,1-1,1l0,0
		C857.53,257,857.08,256.55,857.08,256z M853.09,256c0-0.55,0.45-1,1-1l0,0c0.55,0,1,0.45,1,1l0,0c0,0.55-0.45,1-1,1l0,0
		C853.54,257,853.09,256.55,853.09,256z M849.1,256c0-0.55,0.44-1,1-1l0,0c0.55,0,1,0.45,1,1l0,0c0,0.55-0.45,1-1,1l0,0
		C849.54,257,849.1,256.55,849.1,256z M845.1,256c0-0.55,0.45-1,1-1l0,0c0.55,0,1,0.45,1,1l0,0c0,0.55-0.45,1-1,1l0,0
		C845.55,257,845.1,256.55,845.1,256z M841.11,256c0-0.55,0.45-1,1-1l0,0c0.55,0,1,0.45,1,1l0,0c0,0.55-0.45,1-1,1l0,0
		C841.56,257,841.11,256.55,841.11,256z M837.11,256c0-0.55,0.45-1,1-1l0,0c0.56,0,1,0.45,1,1l0,0c0,0.55-0.44,1-1,1l0,0
		C837.56,257,837.11,256.55,837.11,256z M833.12,256c0-0.55,0.45-1,1-1l0,0c0.55,0,1,0.45,1,1l0,0c0,0.55-0.45,1-1,1l0,0
		C833.57,257,833.12,256.55,833.12,256z M829.13,256c0-0.55,0.44-1,1-1l0,0c0.55,0,0.99,0.45,0.99,1l0,0c0,0.55-0.44,1-0.99,1l0,0
		C829.57,257,829.13,256.55,829.13,256z M825.13,256c0-0.55,0.45-1,1-1l0,0c0.56,0,1,0.45,1,1l0,0c0,0.55-0.44,1-1,1l0,0
		C825.58,257,825.13,256.55,825.13,256z M821.14,256c0-0.55,0.44-1,1-1l0,0c0.55,0,1,0.45,1,1l0,0c0,0.55-0.45,1-1,1l0,0
		C821.58,257,821.14,256.55,821.14,256z M817.14,256c0-0.55,0.45-1,1-1l0,0c0.56,0,1,0.45,1,1l0,0c0,0.55-0.44,1-1,1l0,0
		C817.59,257,817.14,256.55,817.14,256z M813.15,256c0-0.55,0.45-1,1-1l0,0c0.55,0,1,0.45,1,1l0,0c0,0.55-0.45,1-1,1l0,0
		C813.6,257,813.15,256.55,813.15,256z M809.16,256c0-0.55,0.44-1,0.99-1l0,0c0.56,0,1.01,0.45,1.01,1l0,0c0,0.55-0.45,1-1.01,1l0,0
		C809.6,257,809.16,256.55,809.16,256z M805.16,256c0-0.55,0.45-1,1-1l0,0c0.55,0,1,0.45,1,1l0,0c0,0.55-0.45,1-1,1l0,0
		C805.61,257,805.16,256.55,805.16,256z M801.17,256c0-0.55,0.44-1,1-1l0,0c0.55,0,1,0.45,1,1l0,0c0,0.55-0.45,1-1,1l0,0
		C801.61,257,801.17,256.55,801.17,256z M797.17,256c0-0.55,0.45-1,1-1l0,0c0.56,0,1,0.45,1,1l0,0c0,0.55-0.44,1-1,1l0,0
		C797.62,257,797.17,256.55,797.17,256z M793.18,256c0-0.55,0.45-1,1-1l0,0c0.55,0,1,0.45,1,1l0,0c0,0.55-0.45,1-1,1l0,0
		C793.63,257,793.18,256.55,793.18,256z M789.18,256c0-0.55,0.45-1,1.01-1l0,0c0.55,0,0.99,0.45,0.99,1l0,0c0,0.55-0.44,1-0.99,1
		l0,0C789.63,257,789.18,256.55,789.18,256z M785.19,256c0-0.55,0.45-1,1-1l0,0c0.55,0,1,0.45,1,1l0,0c0,0.55-0.45,1-1,1l0,0
		C785.64,257,785.19,256.55,785.19,256z M781.2,256c0-0.55,0.44-1,0.99-1l0,0c0.56,0,1.01,0.45,1.01,1l0,0c0,0.55-0.45,1-1.01,1l0,0
		C781.64,257,781.2,256.55,781.2,256z M777.2,256c0-0.55,0.45-1,1-1l0,0c0.55,0,1,0.45,1,1l0,0c0,0.55-0.45,1-1,1l0,0
		C777.65,257,777.2,256.55,777.2,256z M773.21,256c0-0.55,0.44-1,1-1l0,0c0.55,0,1,0.45,1,1l0,0c0,0.55-0.45,1-1,1l0,0
		C773.65,257,773.21,256.55,773.21,256z M769.21,256c0-0.55,0.45-1,1-1l0,0c0.56,0,1,0.45,1,1l0,0c0,0.55-0.44,1-1,1l0,0
		C769.66,257,769.21,256.55,769.21,256z M765.22,256c0-0.55,0.45-1,1-1l0,0c0.55,0,1,0.45,1,1l0,0c0,0.55-0.45,1-1,1l0,0
		C765.67,257,765.22,256.55,765.22,256z M761.22,256c0-0.55,0.45-1,1.01-1l0,0c0.55,0,0.99,0.45,0.99,1l0,0c0,0.55-0.44,1-0.99,1
		l0,0C761.67,257,761.22,256.55,761.22,256z M757.23,256c0-0.55,0.45-1,1-1l0,0c0.55,0,1,0.45,1,1l0,0c0,0.55-0.45,1-1,1l0,0
		C757.68,257,757.23,256.55,757.23,256z M753.24,256c0-0.55,0.44-1,1-1l0,0c0.55,0,1,0.45,1,1l0,0c0,0.55-0.45,1-1,1l0,0
		C753.68,257,753.24,256.55,753.24,256z M749.24,256c0-0.55,0.45-1,1-1l0,0c0.56,0,1,0.45,1,1l0,0c0,0.55-0.44,1-1,1l0,0
		C749.69,257,749.24,256.55,749.24,256z M745.25,256c0-0.55,0.44-1,1-1l0,0c0.55,0,1,0.45,1,1l0,0c0,0.55-0.45,1-1,1l0,0
		C745.69,257,745.25,256.55,745.25,256z M741.26,256c0-0.55,0.44-1,0.99-1l0,0c0.56,0,1,0.45,1,1l0,0c0,0.55-0.44,1-1,1l0,0
		C741.7,257,741.26,256.55,741.26,256z M737.26,256c0-0.55,0.45-1,1-1l0,0c0.55,0,1,0.45,1,1l0,0c0,0.55-0.45,1-1,1l0,0
		C737.71,257,737.26,256.55,737.26,256z M733.27,256c0-0.55,0.44-1,1-1l0,0c0.55,0,1,0.45,1,1l0,0c0,0.55-0.45,1-1,1l0,0
		C733.71,257,733.27,256.55,733.27,256z M729.27,256c0-0.55,0.45-1,1-1l0,0c0.55,0,1,0.45,1,1l0,0c0,0.55-0.45,1-1,1l0,0
		C729.72,257,729.27,256.55,729.27,256z M725.28,256c0-0.55,0.45-1,1-1l0,0c0.55,0,1,0.45,1,1l0,0c0,0.55-0.45,1-1,1l0,0
		C725.73,257,725.28,256.55,725.28,256z M721.28,256c0-0.55,0.45-1,1-1l0,0c0.56,0,1,0.45,1,1l0,0c0,0.55-0.44,1-1,1l0,0
		C721.73,257,721.28,256.55,721.28,256z M717.29,256c0-0.55,0.45-1,1-1l0,0c0.55,0,1,0.45,1,1l0,0c0,0.55-0.45,1-1,1l0,0
		C717.74,257,717.29,256.55,717.29,256z M713.3,256c0-0.55,0.44-1,1-1l0,0c0.55,0,1,0.45,1,1l0,0c0,0.55-0.45,1-1,1l0,0
		C713.74,257,713.3,256.55,713.3,256z M709.3,256c0-0.55,0.45-1,1-1l0,0c0.56,0,1,0.45,1,1l0,0c0,0.55-0.44,1-1,1l0,0
		C709.75,257,709.3,256.55,709.3,256z M705.31,256c0-0.55,0.44-1,1-1l0,0c0.55,0,1,0.45,1,1l0,0c0,0.55-0.45,1-1,1l0,0
		C705.75,257,705.31,256.55,705.31,256z M701.31,256c0-0.55,0.45-1,1-1l0,0c0.55,0,1,0.45,1,1l0,0c0,0.55-0.45,1-1,1l0,0
		C701.76,257,701.31,256.55,701.31,256z M697.32,256c0-0.55,0.45-1,1-1l0,0c0.55,0,1,0.45,1,1l0,0c0,0.55-0.45,1-1,1l0,0
		C697.77,257,697.32,256.55,697.32,256z M693.32,256c0-0.55,0.45-1,1-1l0,0c0.56,0,1.01,0.45,1.01,1l0,0c0,0.55-0.45,1-1.01,1l0,0
		C693.77,257,693.32,256.55,693.32,256z M689.33,256c0-0.55,0.45-1,1-1l0,0c0.55,0,1,0.45,1,1l0,0c0,0.55-0.45,1-1,1l0,0
		C689.78,257,689.33,256.55,689.33,256z M685.34,256c0-0.55,0.44-1,0.99-1l0,0c0.56,0,1.01,0.45,1.01,1l0,0c0,0.55-0.45,1-1.01,1
		l0,0C685.78,257,685.34,256.55,685.34,256z M681.34,256c0-0.55,0.45-1,1-1l0,0c0.56,0,1,0.45,1,1l0,0c0,0.55-0.44,1-1,1l0,0
		C681.79,257,681.34,256.55,681.34,256z M677.35,256c0-0.55,0.44-1,1-1l0,0c0.55,0,1,0.45,1,1l0,0c0,0.55-0.45,1-1,1l0,0
		C677.79,257,677.35,256.55,677.35,256z M673.35,256c0-0.55,0.45-1,1-1l0,0c0.55,0,1,0.45,1,1l0,0c0,0.55-0.45,1-1,1l0,0
		C673.8,257,673.35,256.55,673.35,256z M669.36,256c0-0.55,0.45-1,1-1l0,0c0.55,0,1,0.45,1,1l0,0c0,0.55-0.45,1-1,1l0,0
		C669.81,257,669.36,256.55,669.36,256z M665.36,256c0-0.55,0.45-1,1-1l0,0c0.56,0,1,0.45,1,1l0,0c0,0.55-0.44,1-1,1l0,0
		C665.81,257,665.36,256.55,665.36,256z M661.37,256c0-0.55,0.45-1,1-1l0,0c0.55,0,1,0.45,1,1l0,0c0,0.55-0.45,1-1,1l0,0
		C661.82,257,661.37,256.55,661.37,256z M657.38,256c0-0.55,0.44-1,1-1l0,0c0.55,0,1,0.45,1,1l0,0c0,0.55-0.45,1-1,1l0,0
		C657.82,257,657.38,256.55,657.38,256z M653.38,256c0-0.55,0.45-1,1-1l0,0c0.56,0,1,0.45,1,1l0,0c0,0.55-0.44,1-1,1l0,0
		C653.83,257,653.38,256.55,653.38,256z M649.39,256c0-0.55,0.44-1,1-1l0,0c0.55,0,1,0.45,1,1l0,0c0,0.55-0.45,1-1,1l0,0
		C649.83,257,649.39,256.55,649.39,256z M645.39,256c0-0.55,0.45-1,1-1l0,0c0.56,0,1,0.45,1,1l0,0c0,0.55-0.44,1-1,1l0,0
		C645.84,257,645.39,256.55,645.39,256z M641.4,256c0-0.55,0.45-1,1-1l0,0c0.55,0,1,0.45,1,1l0,0c0,0.55-0.45,1-1,1l0,0
		C641.85,257,641.4,256.55,641.4,256z M637.41,256c0-0.55,0.44-1,1-1l0,0c0.55,0,1,0.45,1,1l0,0c0,0.55-0.45,1-1,1l0,0
		C637.85,257,637.41,256.55,637.41,256z M633.41,256c0-0.55,0.45-1,1-1l0,0c0.55,0,1,0.45,1,1l0,0c0,0.55-0.45,1-1,1l0,0
		C633.86,257,633.41,256.55,633.41,256z M629.42,256c0-0.55,0.45-1,1-1l0,0c0.55,0,1,0.45,1,1l0,0c0,0.55-0.45,1-1,1l0,0
		C629.87,257,629.42,256.55,629.42,256z M625.42,256c0-0.55,0.45-1,1-1l0,0c0.56,0,1,0.45,1,1l0,0c0,0.55-0.44,1-1,1l0,0
		C625.87,257,625.42,256.55,625.42,256z M621.43,256c0-0.55,0.45-1,1-1l0,0c0.55,0,1,0.45,1,1l0,0c0,0.55-0.45,1-1,1l0,0
		C621.88,257,621.43,256.55,621.43,256z M617.44,256c0-0.55,0.44-1,1-1l0,0c0.55,0,0.99,0.45,0.99,1l0,0c0,0.55-0.44,1-0.99,1l0,0
		C617.88,257,617.44,256.55,617.44,256z M613.44,256c0-0.55,0.45-1,1-1l0,0c0.55,0,1,0.45,1,1l0,0c0,0.55-0.45,1-1,1l0,0
		C613.89,257,613.44,256.55,613.44,256z M609.45,256c0-0.55,0.44-1,1-1l0,0c0.55,0,1,0.45,1,1l0,0c0,0.55-0.45,1-1,1l0,0
		C609.89,257,609.45,256.55,609.45,256z M605.45,256c0-0.55,0.45-1,1-1l0,0c0.55,0,1,0.45,1,1l0,0c0,0.55-0.45,1-1,1l0,0
		C605.9,257,605.45,256.55,605.45,256z M601.46,256c0-0.55,0.45-1,1-1l0,0c0.55,0,1,0.45,1,1l0,0c0,0.55-0.45,1-1,1l0,0
		C601.91,257,601.46,256.55,601.46,256z M597.47,256c0-0.55,0.44-1,0.99-1l0,0c0.56,0,1.01,0.45,1.01,1l0,0c0,0.55-0.45,1-1.01,1
		l0,0C597.91,257,597.47,256.55,597.47,256z M593.47,256c0-0.55,0.45-1,1-1l0,0c0.55,0,1,0.45,1,1l0,0c0,0.55-0.45,1-1,1l0,0
		C593.92,257,593.47,256.55,593.47,256z M589.48,256c0-0.55,0.44-1,1-1l0,0c0.55,0,1,0.45,1,1l0,0c0,0.55-0.45,1-1,1l0,0
		C589.92,257,589.48,256.55,589.48,256z M585.48,256c0-0.55,0.45-1,1-1l0,0c0.55,0,1,0.45,1,1l0,0c0,0.55-0.45,1-1,1l0,0
		C585.93,257,585.48,256.55,585.48,256z M581.49,256c0-0.55,0.44-1,1-1l0,0c0.55,0,1,0.45,1,1l0,0c0,0.55-0.45,1-1,1l0,0
		C581.93,257,581.49,256.55,581.49,256z M577.49,256c0-0.55,0.45-1,1-1l0,0c0.56,0,1,0.45,1,1l0,0c0,0.55-0.44,1-1,1l0,0
		C577.94,257,577.49,256.55,577.49,256z M573.5,256c0-0.55,0.45-1,1-1l0,0c0.55,0,1,0.45,1,1l0,0c0,0.55-0.45,1-1,1l0,0
		C573.95,257,573.5,256.55,573.5,256z M569.51,256c0-0.55,0.44-1,0.99-1l0,0c0.56,0,1.01,0.45,1.01,1l0,0c0,0.55-0.45,1-1.01,1l0,0
		C569.95,257,569.51,256.55,569.51,256z M565.51,256c0-0.55,0.45-1,1-1l0,0c0.55,0,1,0.45,1,1l0,0c0,0.55-0.45,1-1,1l0,0
		C565.96,257,565.51,256.55,565.51,256z M561.52,256c0-0.55,0.44-1,1-1l0,0c0.55,0,1,0.45,1,1l0,0c0,0.55-0.45,1-1,1l0,0
		C561.96,257,561.52,256.55,561.52,256z M557.52,256c0-0.55,0.45-1,1-1l0,0c0.55,0,1,0.45,1,1l0,0c0,0.55-0.45,1-1,1l0,0
		C557.97,257,557.52,256.55,557.52,256z M553.53,256c0-0.55,0.44-1,1-1l0,0c0.55,0,1,0.45,1,1l0,0c0,0.55-0.45,1-1,1l0,0
		C553.97,257,553.53,256.55,553.53,256z M549.53,256c0-0.55,0.45-1,1-1l0,0c0.56,0,1,0.45,1,1l0,0c0,0.55-0.44,1-1,1l0,0
		C549.98,257,549.53,256.55,549.53,256z M545.54,256c0-0.55,0.45-1,1-1l0,0c0.55,0,1,0.45,1,1l0,0c0,0.55-0.45,1-1,1l0,0
		C545.99,257,545.54,256.55,545.54,256z M541.55,256c0-0.55,0.44-1,0.99-1l0,0c0.56,0,1.01,0.45,1.01,1l0,0c0,0.55-0.45,1-1.01,1
		l0,0C541.99,257,541.55,256.55,541.55,256z M537.55,256c0-0.55,0.45-1,1-1l0,0c0.55,0,1,0.45,1,1l0,0c0,0.55-0.45,1-1,1l0,0
		C538,257,537.55,256.55,537.55,256z M533.56,256c0-0.55,0.44-1,1-1l0,0c0.55,0,1,0.45,1,1l0,0c0,0.55-0.45,1-1,1l0,0
		C534,257,533.56,256.55,533.56,256z M529.56,256c0-0.55,0.45-1,1-1l0,0c0.56,0,1,0.45,1,1l0,0c0,0.55-0.44,1-1,1l0,0
		C530.01,257,529.56,256.55,529.56,256z M525.57,256c0-0.55,0.45-1,1-1l0,0c0.55,0,1,0.45,1,1l0,0c0,0.55-0.45,1-1,1l0,0
		C526.02,257,525.57,256.55,525.57,256z M521.57,256c0-0.55,0.45-1,1.01-1l0,0c0.55,0,0.99,0.45,0.99,1l0,0c0,0.55-0.44,1-0.99,1
		l0,0C522.02,257,521.57,256.55,521.57,256z M517.58,256c0-0.55,0.45-1,1-1l0,0c0.55,0,1,0.45,1,1l0,0c0,0.55-0.45,1-1,1l0,0
		C518.03,257,517.58,256.55,517.58,256z M513.59,256c0-0.55,0.44-1,1-1l0,0c0.55,0,1,0.45,1,1l0,0c0,0.55-0.45,1-1,1l0,0
		C514.03,257,513.59,256.55,513.59,256z M509.59,256c0-0.55,0.45-1,1-1l0,0c0.56,0,1,0.45,1,1l0,0c0,0.55-0.44,1-1,1l0,0
		C510.04,257,509.59,256.55,509.59,256z M505.6,256c0-0.55,0.45-1,1-1l0,0c0.55,0,1,0.45,1,1l0,0c0,0.55-0.45,1-1,1l0,0
		C506.05,257,505.6,256.55,505.6,256z M501.61,256c0-0.55,0.44-1,0.99-1l0,0c0.56,0,1.01,0.45,1.01,1l0,0c0,0.55-0.45,1-1.01,1l0,0
		C502.05,257,501.61,256.55,501.61,256z M497.61,256c0-0.55,0.45-1,1-1l0,0c0.55,0,1,0.45,1,1l0,0c0,0.55-0.45,1-1,1l0,0
		C498.06,257,497.61,256.55,497.61,256z M493.61,256c0-0.55,0.45-1,1.01-1l0,0c0.55,0,1,0.45,1,1l0,0c0,0.55-0.45,1-1,1l0,0
		C494.06,257,493.61,256.55,493.61,256z M489.62,256c0-0.55,0.45-1,1-1l0,0c0.55,0,1,0.45,1,1l0,0c0,0.55-0.45,1-1,1l0,0
		C490.07,257,489.62,256.55,489.62,256z M485.63,256c0-0.55,0.45-1,1-1l0,0c0.55,0,1,0.45,1,1l0,0c0,0.55-0.45,1-1,1l0,0
		C486.08,257,485.63,256.55,485.63,256z M481.63,256c0-0.55,0.45-1,1-1l0,0c0.56,0,1,0.45,1,1l0,0c0,0.55-0.44,1-1,1l0,0
		C482.08,257,481.63,256.55,481.63,256z M477.64,256c0-0.55,0.45-1,1-1l0,0c0.55,0,1,0.45,1,1l0,0c0,0.55-0.45,1-1,1l0,0
		C478.09,257,477.64,256.55,477.64,256z M473.65,256c0-0.55,0.44-1,0.99-1l0,0c0.56,0,1.01,0.45,1.01,1l0,0c0,0.55-0.45,1-1.01,1
		l0,0C474.09,257,473.65,256.55,473.65,256z M469.65,256c0-0.55,0.45-1,1-1l0,0c0.55,0,1,0.45,1,1l0,0c0,0.55-0.45,1-1,1l0,0
		C470.1,257,469.65,256.55,469.65,256z M465.66,256c0-0.55,0.44-1,1-1l0,0c0.55,0,1,0.45,1,1l0,0c0,0.55-0.45,1-1,1l0,0
		C466.1,257,465.66,256.55,465.66,256z M461.66,256c0-0.55,0.45-1,1-1l0,0c0.55,0,1,0.45,1,1l0,0c0,0.55-0.45,1-1,1l0,0
		C462.11,257,461.66,256.55,461.66,256z M457.67,256c0-0.55,0.45-1,1-1l0,0c0.55,0,1,0.45,1,1l0,0c0,0.55-0.45,1-1,1l0,0
		C458.12,257,457.67,256.55,457.67,256z M453.67,256c0-0.55,0.45-1,1-1l0,0c0.56,0,1,0.45,1,1l0,0c0,0.55-0.44,1-1,1l0,0
		C454.12,257,453.67,256.55,453.67,256z M449.68,256c0-0.55,0.45-1,1-1l0,0c0.55,0,1,0.45,1,1l0,0c0,0.55-0.45,1-1,1l0,0
		C450.13,257,449.68,256.55,449.68,256z M445.69,256c0-0.55,0.44-1,1-1l0,0c0.55,0,1,0.45,1,1l0,0c0,0.55-0.45,1-1,1l0,0
		C446.13,257,445.69,256.55,445.69,256z M441.69,256c0-0.55,0.45-1,1-1l0,0c0.56,0,1,0.45,1,1l0,0c0,0.55-0.44,1-1,1l0,0
		C442.14,257,441.69,256.55,441.69,256z M437.7,256c0-0.55,0.44-1,1-1l0,0c0.55,0,1,0.45,1,1l0,0c0,0.55-0.45,1-1,1l0,0
		C438.14,257,437.7,256.55,437.7,256z M433.7,256c0-0.55,0.45-1,1-1l0,0c0.56,0,1,0.45,1,1l0,0c0,0.55-0.44,1-1,1l0,0
		C434.15,257,433.7,256.55,433.7,256z M429.71,256c0-0.55,0.45-1,1-1l0,0c0.55,0,1,0.45,1,1l0,0c0,0.55-0.45,1-1,1l0,0
		C430.16,257,429.71,256.55,429.71,256z M425.71,256c0-0.55,0.45-1,1.01-1l0,0c0.55,0,0.99,0.45,0.99,1l0,0c0,0.55-0.44,1-0.99,1
		l0,0C426.16,257,425.71,256.55,425.71,256z M421.72,256c0-0.55,0.45-1,1-1l0,0c0.55,0,1,0.45,1,1l0,0c0,0.55-0.45,1-1,1l0,0
		C422.17,257,421.72,256.55,421.72,256z M417.73,256c0-0.55,0.44-1,1-1l0,0c0.55,0,1,0.45,1,1l0,0c0,0.55-0.45,1-1,1l0,0
		C418.17,257,417.73,256.55,417.73,256z M413.73,256c0-0.55,0.45-1,1-1l0,0c0.56,0,1,0.45,1,1l0,0c0,0.55-0.44,1-1,1l0,0
		C414.18,257,413.73,256.55,413.73,256z M409.74,256c0-0.55,0.44-1,1-1l0,0c0.55,0,1,0.45,1,1l0,0c0,0.55-0.45,1-1,1l0,0
		C410.18,257,409.74,256.55,409.74,256z M405.74,256c0-0.55,0.45-1,1-1l0,0c0.56,0,1,0.45,1,1l0,0c0,0.55-0.44,1-1,1l0,0
		C406.19,257,405.74,256.55,405.74,256z M401.75,256c0-0.55,0.45-1,1-1l0,0c0.55,0,1,0.45,1,1l0,0c0,0.55-0.45,1-1,1l0,0
		C402.2,257,401.75,256.55,401.75,256z M397.76,256c0-0.55,0.44-1,1-1l0,0c0.55,0,1,0.45,1,1l0,0c0,0.55-0.45,1-1,1l0,0
		C398.2,257,397.76,256.55,397.76,256z M393.76,256c0-0.55,0.45-1,1-1l0,0c0.55,0,1,0.45,1,1l0,0c0,0.55-0.45,1-1,1l0,0
		C394.21,257,393.76,256.55,393.76,256z M389.77,256c0-0.55,0.45-1,1-1l0,0c0.55,0,1,0.45,1,1l0,0c0,0.55-0.45,1-1,1l0,0
		C390.22,257,389.77,256.55,389.77,256z M385.77,256c0-0.55,0.45-1,1-1l0,0c0.56,0,1,0.45,1,1l0,0c0,0.55-0.44,1-1,1l0,0
		C386.22,257,385.77,256.55,385.77,256z M381.78,256c0-0.55,0.45-1,1-1l0,0c0.55,0,1,0.45,1,1l0,0c0,0.55-0.45,1-1,1l0,0
		C382.23,257,381.78,256.55,381.78,256z M377.78,256c0-0.55,0.45-1,1.01-1l0,0c0.55,0,0.99,0.45,0.99,1l0,0c0,0.55-0.44,1-0.99,1
		l0,0C378.23,257,377.78,256.55,377.78,256z M373.79,256c0-0.55,0.45-1,1-1l0,0c0.55,0,1,0.45,1,1l0,0c0,0.55-0.45,1-1,1l0,0
		C374.24,257,373.79,256.55,373.79,256z M369.8,256c0-0.55,0.44-1,1-1l0,0c0.55,0,1,0.45,1,1l0,0c0,0.55-0.45,1-1,1l0,0
		C370.24,257,369.8,256.55,369.8,256z M365.8,256c0-0.55,0.45-1,1-1l0,0c0.55,0,1,0.45,1,1l0,0c0,0.55-0.45,1-1,1l0,0
		C366.25,257,365.8,256.55,365.8,256z M361.81,256c0-0.55,0.45-1,1-1l0,0c0.55,0,1,0.45,1,1l0,0c0,0.55-0.45,1-1,1l0,0
		C362.26,257,361.81,256.55,361.81,256z M357.81,256c0-0.55,0.45-1,1-1l0,0c0.56,0,1,0.45,1,1l0,0c0,0.55-0.44,1-1,1l0,0
		C358.26,257,357.81,256.55,357.81,256z M353.82,256c0-0.55,0.45-1,1-1l0,0c0.55,0,1,0.45,1,1l0,0c0,0.55-0.45,1-1,1l0,0
		C354.27,257,353.82,256.55,353.82,256z M349.82,256c0-0.55,0.45-1,1.01-1l0,0c0.55,0,0.99,0.45,0.99,1l0,0c0,0.55-0.44,1-0.99,1
		l0,0C350.27,257,349.82,256.55,349.82,256z M345.83,256c0-0.55,0.45-1,1-1l0,0c0.55,0,1,0.45,1,1l0,0c0,0.55-0.45,1-1,1l0,0
		C346.28,257,345.83,256.55,345.83,256z M341.84,256c0-0.55,0.44-1,1-1l0,0c0.55,0,1,0.45,1,1l0,0c0,0.55-0.45,1-1,1l0,0
		C342.28,257,341.84,256.55,341.84,256z M337.84,256c0-0.55,0.45-1,1-1l0,0c0.56,0,1,0.45,1,1l0,0c0,0.55-0.44,1-1,1l0,0
		C338.29,257,337.84,256.55,337.84,256z M333.85,256c0-0.55,0.45-1,1-1l0,0c0.55,0,1,0.45,1,1l0,0c0,0.55-0.45,1-1,1l0,0
		C334.3,257,333.85,256.55,333.85,256z M329.86,256c0-0.55,0.44-1,0.99-1l0,0c0.56,0,1.01,0.45,1.01,1l0,0c0,0.55-0.45,1-1.01,1l0,0
		C330.3,257,329.86,256.55,329.86,256z M325.86,256c0-0.55,0.45-1,1-1l0,0c0.55,0,1,0.45,1,1l0,0c0,0.55-0.45,1-1,1l0,0
		C326.31,257,325.86,256.55,325.86,256z M321.87,256c0-0.55,0.44-1,1-1l0,0c0.55,0,1,0.45,1,1l0,0c0,0.55-0.45,1-1,1l0,0
		C322.31,257,321.87,256.55,321.87,256z M317.87,256c0-0.55,0.45-1,1-1l0,0c0.56,0,1,0.45,1,1l0,0c0,0.55-0.44,1-1,1l0,0
		C318.32,257,317.87,256.55,317.87,256z M313.88,256c0-0.55,0.45-1,1-1l0,0c0.55,0,1,0.45,1,1l0,0c0,0.55-0.45,1-1,1l0,0
		C314.33,257,313.88,256.55,313.88,256z M309.88,256c0-0.55,0.45-1,1.01-1l0,0c0.55,0,0.99,0.45,0.99,1l0,0c0,0.55-0.44,1-0.99,1
		l0,0C310.33,257,309.88,256.55,309.88,256z M305.89,256c0-0.55,0.45-1,1-1l0,0c0.55,0,1,0.45,1,1l0,0c0,0.55-0.45,1-1,1l0,0
		C306.34,257,305.89,256.55,305.89,256z M301.9,256c0-0.55,0.44-1,1-1l0,0c0.55,0,1,0.45,1,1l0,0c0,0.55-0.45,1-1,1l0,0
		C302.34,257,301.9,256.55,301.9,256z M297.9,256c0-0.55,0.45-1,1-1l0,0c0.55,0,1,0.45,1,1l0,0c0,0.55-0.45,1-1,1l0,0
		C298.35,257,297.9,256.55,297.9,256z M293.91,256c0-0.55,0.45-1,1-1l0,0c0.55,0,1,0.45,1,1l0,0c0,0.55-0.45,1-1,1l0,0
		C294.36,257,293.91,256.55,293.91,256z M289.91,256c0-0.55,0.45-1,1-1l0,0c0.56,0,1,0.45,1,1l0,0c0,0.55-0.44,1-1,1l0,0
		C290.36,257,289.91,256.55,289.91,256z M285.92,256c0-0.55,0.45-1,1-1l0,0c0.55,0,1,0.45,1,1l0,0c0,0.55-0.45,1-1,1l0,0
		C286.37,257,285.92,256.55,285.92,256z M281.92,256c0-0.55,0.45-1,1.01-1l0,0c0.55,0,0.99,0.45,0.99,1l0,0c0,0.55-0.44,1-0.99,1
		l0,0C282.37,257,281.92,256.55,281.92,256z M277.93,256c0-0.55,0.45-1,1-1l0,0c0.55,0,1,0.45,1,1l0,0c0,0.55-0.45,1-1,1l0,0
		C278.38,257,277.93,256.55,277.93,256z M273.94,256c0-0.55,0.44-1,1-1l0,0c0.55,0,1,0.45,1,1l0,0c0,0.55-0.45,1-1,1l0,0
		C274.38,257,273.94,256.55,273.94,256z M269.94,256c0-0.55,0.45-1,1-1l0,0c0.55,0,1,0.45,1,1l0,0c0,0.55-0.45,1-1,1l0,0
		C270.39,257,269.94,256.55,269.94,256z M265.95,256c0-0.55,0.45-1,1-1l0,0c0.55,0,1,0.45,1,1l0,0c0,0.55-0.45,1-1,1l0,0
		C266.4,257,265.95,256.55,265.95,256z M261.95,256c0-0.55,0.45-1,1-1l0,0c0.56,0,1,0.45,1,1l0,0c0,0.55-0.44,1-1,1l0,0
		C262.4,257,261.95,256.55,261.95,256z M257.96,256c0-0.55,0.45-1,1-1l0,0c0.55,0,1,0.45,1,1l0,0c0,0.55-0.45,1-1,1l0,0
		C258.41,257,257.96,256.55,257.96,256z M253.96,256c0-0.55,0.45-1,1.01-1l0,0c0.55,0,0.99,0.45,0.99,1l0,0c0,0.55-0.44,1-0.99,1
		l0,0C254.41,257,253.96,256.55,253.96,256z M249.97,256c0-0.55,0.45-1,1-1l0,0c0.55,0,1,0.45,1,1l0,0c0,0.55-0.45,1-1,1l0,0
		C250.42,257,249.97,256.55,249.97,256z M245.98,256c0-0.55,0.44-1,1-1l0,0c0.55,0,1,0.45,1,1l0,0c0,0.55-0.45,1-1,1l0,0
		C246.42,257,245.98,256.55,245.98,256z M241.98,256c0-0.55,0.45-1,1-1l0,0c0.56,0,1,0.45,1,1l0,0c0,0.55-0.44,1-1,1l0,0
		C242.43,257,241.98,256.55,241.98,256z M237.99,256c0-0.55,0.45-1,1-1l0,0c0.55,0,1,0.45,1,1l0,0c0,0.55-0.45,1-1,1l0,0
		C238.44,257,237.99,256.55,237.99,256z M234,256c0-0.55,0.44-1,0.99-1l0,0c0.56,0,1,0.45,1,1l0,0c0,0.55-0.44,1-1,1l0,0
		C234.44,257,234,256.55,234,256z"/>
	<path d="M1601,257c-0.26,0-0.52-0.1-0.71-0.29c-0.09-0.09-0.16-0.2-0.21-0.33c-0.05-0.12-0.08-0.25-0.08-0.38s0.03-0.26,0.08-0.38
		c0.05-0.12,0.12-0.23,0.21-0.33c0.28-0.28,0.73-0.37,1.09-0.21c0.13,0.05,0.24,0.12,0.33,0.21c0.19,0.19,0.29,0.45,0.29,0.71
		c0,0.13-0.02,0.26-0.08,0.38c-0.05,0.13-0.12,0.23-0.21,0.33C1601.52,256.9,1601.26,257,1601,257z"/>
</g>
<path d="M0,0v273.72l155-23.09V23.09L0,0z M120.21,119.03H65.38v40.72c0,12.5,4.44,19.76,15.12,19.76
	c10.48,0,15.32-7.06,15.32-19.35v-25.8h24.39v28.22c0,20.97-12.1,39.72-40.12,39.72c-29.03,0-40.52-18.55-40.52-39.92v-88.7h25.8
	v26.81h54.83V119.03z"/>
</svg>
