<?xml version="1.0" encoding="UTF-8" standalone="no"?>
<!-- Generator: Adobe Illustrator 27.2.0, SVG Export Plug-In . SVG Version: 6.00 Build 0)  -->

<svg
   version="1.1"
   id="Ebene_1"
   x="0px"
   y="0px"
   viewBox="0 0 688.14 107.06"
   xml:space="preserve"
   sodipodi:docname="generic_header_line_long.svg"
   width="688.14001"
   height="107.06"
   inkscape:version="1.2.2 (b0a84865, 2022-12-01)"
   xmlns:inkscape="http://www.inkscape.org/namespaces/inkscape"
   xmlns:sodipodi="http://sodipodi.sourceforge.net/DTD/sodipodi-0.dtd"
   xmlns="http://www.w3.org/2000/svg"
   xmlns:svg="http://www.w3.org/2000/svg"><defs
   id="defs1271">
	
	
	
	
	
	
	
	
	
	
	
	
	
	
	
	
	
	
	
	
	
</defs><sodipodi:namedview
   id="namedview1269"
   pagecolor="#ffffff"
   bordercolor="#000000"
   borderopacity="0.25"
   inkscape:showpageshadow="2"
   inkscape:pageopacity="0.0"
   inkscape:pagecheckerboard="0"
   inkscape:deskcolor="#d1d1d1"
   showgrid="false"
   inkscape:zoom="1.1551069"
   inkscape:cx="302.56939"
   inkscape:cy="74.884842"
   inkscape:window-width="1440"
   inkscape:window-height="900"
   inkscape:window-x="0"
   inkscape:window-y="0"
   inkscape:window-maximized="0"
   inkscape:current-layer="Ebene_1" />
<style
   type="text/css"
   id="style1202">
	.st0{fill:#08374E;}
	.st1{fill:#0A71B4;}
	.st2{fill:#223565;}
	.st3{fill:#020203;}
	.st4{fill:none;stroke:#75C2A9;stroke-width:0.75;stroke-linejoin:round;stroke-miterlimit:10;}
</style>
<polygon
   class="st0"
   points="72.72,100.36 47.28,107.06 47.3,71.43 72.71,69.19 "
   id="polygon1204" /><polygon
   class="st1"
   points="72.71,69.19 47.3,71.43 47.31,35.77 72.7,38 "
   id="polygon1206" /><polygon
   class="st0"
   points="47.31,35.78 47.28,0 72.72,6.76 72.7,38 "
   id="polygon1208" /><polygon
   class="st1"
   points="43.57,35.78 43.6,0 18.15,6.76 18.17,38 "
   id="polygon1210" /><polygon
   class="st0"
   points="18.16,100.36 43.59,107.06 43.58,71.43 18.17,69.19 "
   id="polygon1212" /><polygon
   class="st2"
   points="18.17,69.19 43.58,71.43 43.57,35.77 18.17,38 "
   id="polygon1214" /><polygon
   class="st2"
   points="130.43,100.36 105,107.06 105.01,71.43 130.42,69.19 "
   id="polygon1216" /><polygon
   class="st0"
   points="130.42,69.19 105.01,71.43 105.02,35.77 130.42,38 "
   id="polygon1218" /><polygon
   class="st1"
   points="105.02,35.78 104.99,0 130.44,6.76 130.42,38 "
   id="polygon1220" /><polygon
   class="st2"
   points="101.28,35.78 101.31,0 75.87,6.76 75.89,38 "
   id="polygon1222" /><polygon
   class="st1"
   points="75.87,100.36 101.31,107.06 101.29,71.43 75.88,69.19 "
   id="polygon1224" /><polygon
   class="st0"
   points="75.88,69.19 101.29,71.43 101.28,35.77 75.89,38 "
   id="polygon1226" /><polygon
   class="st1"
   points="188.15,100.36 162.71,107.06 162.73,71.43 188.14,69.19 "
   id="polygon1228" /><polygon
   class="st2"
   points="188.14,69.19 162.73,71.43 162.73,35.77 188.13,38 "
   id="polygon1230" /><polygon
   class="st0"
   points="162.73,35.78 162.71,0 188.15,6.76 188.13,38 "
   id="polygon1232" /><polygon
   class="st2"
   points="159,35.78 159.03,0 133.58,6.76 133.6,38 "
   id="polygon1234" /><polygon
   class="st0"
   points="133.59,100.36 159.02,107.06 159,71.43 133.6,69.19 "
   id="polygon1236" /><polygon
   class="st1"
   points="133.6,69.19 159,71.43 159,35.77 133.6,38 "
   id="polygon1238" /><g
   id="g1260">
		<path
   class="st3"
   d="M 202.46,72.97 V 45.42 h 6.83 v 3.3 c 2.41,-3.7 5.21,-4.03 8.18,-4.03 h 0.95 v 7.45 c -0.67,-0.11 -1.34,-0.17 -2.02,-0.17 -4.48,0 -6.66,2.24 -6.66,6.66 v 14.34 z"
   id="path1240" />
		<path
   class="st3"
   d="m 219.94,42.12 v -6.78 h 7.28 v 6.78 z m 0,30.85 V 45.42 h 7.28 v 27.55 z"
   id="path1242" />
		<path
   class="st3"
   d="m 246.88,53.77 c -0.39,-2.69 -1.85,-3.64 -5.15,-3.64 -2.74,0 -4.31,0.67 -4.31,2.3 0,1.63 1.51,2.3 4.48,3.14 3.14,0.9 6.1,1.51 8.23,2.35 2.91,1.18 4.54,3.08 4.54,6.66 0,5.71 -4.2,9.13 -12.04,9.13 -8.46,0 -13.16,-3.98 -13.27,-9.58 h 7.5 c 0,2.58 2.18,4.09 5.71,4.09 2.58,0 4.87,-0.78 4.87,-2.86 0,-1.96 -2.07,-2.58 -4.42,-3.14 -4.65,-1.12 -7.22,-1.9 -9.18,-3.14 -2.58,-1.62 -3.47,-3.75 -3.47,-6.22 0,-4.65 3.19,-8.18 11.59,-8.18 7.95,0 11.54,3.14 11.93,9.07 h -7.01 z"
   id="path1244" />
		<path
   class="st3"
   d="m 257.08,42.12 v -6.78 h 7.28 v 6.78 z m 0,30.85 V 45.42 h 7.28 v 27.55 z"
   id="path1246" />
		<path
   class="st3"
   d="M 285.47,72.97 V 56.29 c 0,-4.26 -1.23,-5.43 -4.7,-5.43 -3.81,0 -5.66,2.13 -5.66,6.33 v 15.79 h -7.28 V 45.42 h 6.94 v 4.03 c 1.68,-3.08 4.48,-4.76 8.9,-4.76 5.26,0 9.13,3.19 9.13,9.18 v 19.1 z"
   id="path1248" />
		<path
   class="st3"
   d="m 315.02,69.28 c -1.01,2.46 -3.98,3.92 -7.56,3.92 -9.07,0 -12.21,-6.94 -12.21,-14.17 0,-8.57 5.38,-14.34 12.04,-14.34 3.47,0 5.99,1.34 7.73,4.14 v -3.42 h 7.28 v 27.83 c 0,8.29 -6.05,12.77 -13.72,12.77 -7.67,0 -13.33,-4.42 -13.33,-11.54 h 6.78 c 0,3.3 2.41,5.26 6.05,5.26 3.86,0 6.94,-2.3 6.94,-5.94 z m 0.23,-9.41 c 0,-5.99 -2.07,-8.85 -6.22,-8.85 -4.09,0 -6.22,2.74 -6.22,8.4 0,4.93 2.63,8.06 6.22,8.06 3.53,0.01 6.22,-2.96 6.22,-7.61 z"
   id="path1250" />
		<path
   class="st3"
   d="m 355.57,53.77 c -0.39,-2.69 -1.85,-3.64 -5.15,-3.64 -2.74,0 -4.31,0.67 -4.31,2.3 0,1.63 1.51,2.3 4.48,3.14 3.14,0.9 6.1,1.51 8.23,2.35 2.91,1.18 4.54,3.08 4.54,6.66 0,5.71 -4.2,9.13 -12.04,9.13 -8.46,0 -13.16,-3.98 -13.27,-9.58 h 7.5 c 0,2.58 2.18,4.09 5.71,4.09 2.58,0 4.87,-0.78 4.87,-2.86 0,-1.96 -2.07,-2.58 -4.42,-3.14 -4.65,-1.12 -7.22,-1.9 -9.18,-3.14 -2.58,-1.62 -3.47,-3.75 -3.47,-6.22 0,-4.65 3.19,-8.18 11.59,-8.18 7.95,0 11.54,3.14 11.93,9.07 h -7.01 z"
   id="path1252" />
		<path
   class="st3"
   d="m 371.71,61.1 c 0.22,4.14 2.58,6.83 6.16,6.83 2.35,0 4.42,-1.18 4.93,-3.08 h 7.5 c -1.68,5.66 -6.22,8.85 -12.1,8.85 -9.18,0 -13.78,-5.04 -13.78,-15.01 0,-8.51 4.87,-14 13.33,-14 8.46,0 12.94,5.49 12.94,16.41 z m 11.48,-4.59 c -0.11,-4.09 -2.8,-6.05 -5.66,-6.05 -2.91,0 -5.32,2.24 -5.6,6.05 z"
   id="path1254" />
		<path
   class="st3"
   d="m 409.91,72.97 c -0.22,-0.67 -0.39,-1.62 -0.45,-2.46 -1.74,1.9 -4.65,3.19 -8.34,3.19 -6.27,0 -9.18,-3.08 -9.18,-7.56 0,-7.95 5.32,-8.85 12.66,-9.86 3.64,-0.5 4.65,-1.23 4.65,-3.14 0,-1.79 -1.79,-2.86 -4.65,-2.86 -3.3,0 -4.65,1.62 -4.98,4.09 h -6.78 c 0.11,-5.71 3.25,-9.69 12.1,-9.69 8.74,0 11.76,3.92 11.76,10.86 v 17.42 h -6.79 z m -0.5,-13.49 c -0.73,0.73 -2.02,1.12 -4.7,1.62 -4.14,0.78 -5.49,1.96 -5.49,4.31 0,2.07 1.23,3.08 3.53,3.08 3.75,0 6.55,-2.74 6.61,-5.99 z"
   id="path1256" />
		<path
   class="st3"
   d="m 436.17,53.77 c -0.39,-2.69 -1.85,-3.64 -5.15,-3.64 -2.74,0 -4.31,0.67 -4.31,2.3 0,1.63 1.51,2.3 4.48,3.14 3.14,0.9 6.1,1.51 8.23,2.35 2.91,1.18 4.54,3.08 4.54,6.66 0,5.71 -4.2,9.13 -12.04,9.13 -8.46,0 -13.16,-3.98 -13.27,-9.58 h 7.5 c 0,2.58 2.18,4.09 5.71,4.09 2.58,0 4.87,-0.78 4.87,-2.86 0,-1.96 -2.07,-2.58 -4.42,-3.14 -4.65,-1.12 -7.22,-1.9 -9.18,-3.14 -2.58,-1.62 -3.47,-3.75 -3.47,-6.22 0,-4.65 3.19,-8.18 11.59,-8.18 7.95,0 11.54,3.14 11.93,9.07 h -7.01 z"
   id="path1258" />
	</g><line
   class="st4"
   x1="0"
   y1="91.709999"
   x2="18.17"
   y2="91.709999"
   id="line1262" /><line
   class="st4"
   x1="188.14"
   y1="91.709999"
   x2="688.14001"
   y2="91.709999"
   id="line1264" />
</svg>
