<?xml version="1.0" encoding="UTF-8"?>
<svg id="Ebene_1" data-name="Ebene 1" xmlns="http://www.w3.org/2000/svg" viewBox="0 0 427.4 107.06">
  <defs>
    <style>
      .cls-1 {
        fill: #010101;
      }

      .cls-2 {
        fill: #0f70b3;
      }

      .cls-3 {
        fill: #233566;
      }

      .cls-4 {
        fill: #08374e;
      }
    </style>
  </defs>
  <g>
    <polygon class="cls-4" points="54.57 100.36 29.13 107.06 29.15 71.43 54.56 69.19 54.57 100.36"/>
    <polygon class="cls-2" points="54.56 69.19 29.15 71.43 29.15 35.77 54.55 38 54.56 69.19"/>
    <polygon class="cls-4" points="29.15 35.77 29.13 0 54.57 6.76 54.55 38 29.15 35.77"/>
    <polygon class="cls-2" points="25.42 35.77 25.44 0 0 6.76 .02 38 25.42 35.77"/>
    <polygon class="cls-4" points="0 100.36 25.44 107.06 25.42 71.43 .01 69.19 0 100.36"/>
    <polygon class="cls-3" points=".01 69.19 25.42 71.43 25.42 35.77 .02 38 .01 69.19"/>
    <polygon class="cls-3" points="112.28 100.36 86.85 107.06 86.86 71.43 112.27 69.19 112.28 100.36"/>
    <polygon class="cls-4" points="112.27 69.19 86.86 71.43 86.87 35.77 112.26 38 112.27 69.19"/>
    <polygon class="cls-2" points="86.87 35.77 86.84 0 112.29 6.76 112.26 38 86.87 35.77"/>
    <polygon class="cls-3" points="83.13 35.77 83.16 0 57.71 6.76 57.74 38 83.13 35.77"/>
    <polygon class="cls-2" points="57.72 100.36 83.15 107.06 83.14 71.43 57.73 69.19 57.72 100.36"/>
    <polygon class="cls-4" points="57.73 69.19 83.14 71.43 83.13 35.77 57.74 38 57.73 69.19"/>
    <polygon class="cls-2" points="170 100.36 144.56 107.06 144.58 71.43 169.99 69.19 170 100.36"/>
    <polygon class="cls-3" points="169.99 69.19 144.58 71.43 144.58 35.77 169.98 38 169.99 69.19"/>
    <polygon class="cls-4" points="144.58 35.77 144.56 0 170 6.76 169.98 38 144.58 35.77"/>
    <polygon class="cls-3" points="140.85 35.77 140.87 0 115.43 6.76 115.45 38 140.85 35.77"/>
    <polygon class="cls-4" points="115.43 100.36 140.87 107.06 140.85 71.43 115.44 69.19 115.43 100.36"/>
    <polygon class="cls-2" points="115.44 69.19 140.85 71.43 140.85 35.77 115.45 38 115.44 69.19"/>
  </g>
  <g>
    <path class="cls-1" d="m185.15,72.97v-28.05h5.36v5.02c2.22-4.79,5.81-5.76,9.24-5.76h1.25v5.87c-.63-.11-1.31-.17-2.05-.17-5.47,0-8.09,3.53-8.09,8.67v14.42h-5.7Z"/>
    <path class="cls-1" d="m203.56,41.56v-6.9h5.7v6.9h-5.7Zm0,31.41v-28.05h5.7v28.05h-5.7Z"/>
    <path class="cls-1" d="m230.87,53.42c-.34-3.36-2.05-4.9-6.56-4.9-3.65,0-5.76,1.03-5.76,3.48,0,1.71,1.03,2.62,3.25,3.31,2.39.74,6.61,1.31,9.98,2.51,2.96,1.08,5.36,2.74,5.36,6.9,0,5.47-4.05,9.01-11.91,9.01s-13.11-3.82-13.23-9.75h5.87c.11,3.59,2.91,5.42,7.3,5.42s6.44-1.88,6.44-4.05c0-1.54-1.03-2.39-2.34-3.02-2.56-1.25-6.04-1.6-9.06-2.45-5.93-1.71-7.18-4.62-7.18-7.52,0-4.85,3.48-8.15,11.52-8.15s11.52,3.48,11.8,9.24h-5.47Z"/>
    <path class="cls-1" d="m239.76,41.56v-6.9h5.7v6.9h-5.7Zm0,31.41v-28.05h5.7v28.05h-5.7Z"/>
    <path class="cls-1" d="m268.26,72.97v-17.27c0-5.07-1.94-6.67-5.76-6.67-5.7,0-7.64,3.59-7.64,9.41v14.54h-5.7v-28.05h5.47v5.59c1.65-4.33,5.24-6.33,9.81-6.33,5.53,0,9.52,2.96,9.52,9.69v19.1h-5.7Z"/>
    <path class="cls-1" d="m298.13,67.62c-1.25,3.99-4.9,5.59-9.01,5.59-8.27,0-12.14-6.44-12.14-14.25,0-9.23,5.42-14.76,12.31-14.76,3.71,0,7.13,1.6,8.84,5.81v-5.07h5.7v28.33c0,8.44-5.99,13-13.62,13s-13.23-4.5-13.23-11.74h5.36c0,4.33,3.14,6.84,7.53,6.84,4.62,0,8.27-2.85,8.27-7.64v-6.1Zm.17-8.78c0-6.04-2.85-9.63-7.75-9.63s-7.64,3.42-7.64,9.58c0,6.56,3.19,9.92,7.7,9.92s7.7-3.53,7.7-9.86Z"/>
    <path class="cls-1" d="m338.77,53.42c-.34-3.36-2.05-4.9-6.56-4.9-3.65,0-5.76,1.03-5.76,3.48,0,1.71,1.03,2.62,3.25,3.31,2.39.74,6.61,1.31,9.98,2.51,2.96,1.08,5.36,2.74,5.36,6.9,0,5.47-4.05,9.01-11.91,9.01s-13.11-3.82-13.23-9.75h5.87c.11,3.59,2.91,5.42,7.3,5.42s6.44-1.88,6.44-4.05c0-1.54-1.03-2.39-2.34-3.02-2.57-1.25-6.04-1.6-9.06-2.45-5.93-1.71-7.18-4.62-7.18-7.52,0-4.85,3.48-8.15,11.52-8.15s11.52,3.48,11.8,9.24h-5.47Z"/>
    <path class="cls-1" d="m352.56,60.38c.23,5.59,3.08,8.84,7.58,8.84,3.25,0,5.76-1.65,6.5-4.5h5.93c-1.71,5.7-5.76,9.01-12.43,9.01-8.72,0-13.28-5.59-13.28-14.77s4.85-14.76,13.11-14.76,13,5.76,13,16.19h-20.41Zm14.54-3.65c-.11-5.13-3.14-7.98-7.13-7.98s-7.01,3.02-7.24,7.98h14.37Z"/>
    <path class="cls-1" d="m394.34,72.97c-.17-.51-.29-3.14-.34-3.82-1.48,2.51-4.62,4.56-9.75,4.56-6.27,0-9.18-3.02-9.18-8.21,0-7.35,5.81-8.27,12.54-9.18,4.05-.57,5.99-.85,6.21-2.91,0-3.02-2-4.79-6.1-4.79-4.39,0-6.16,2.11-6.44,5.42h-5.3c.11-5.81,3.19-9.86,11.97-9.86s11.69,3.99,11.69,11.06v17.73h-5.3Zm-.4-14.48c-.85.97-3.25,1.2-6.27,1.65-4.5.74-6.9,1.71-6.9,5.19,0,2.79,1.6,4.28,4.85,4.28,4.73,0,8.09-3.08,8.27-7.07l.06-4.05Z"/>
    <path class="cls-1" d="m421.13,53.42c-.34-3.36-2.05-4.9-6.56-4.9-3.65,0-5.76,1.03-5.76,3.48,0,1.71,1.03,2.62,3.25,3.31,2.39.74,6.61,1.31,9.98,2.51,2.96,1.08,5.36,2.74,5.36,6.9,0,5.47-4.05,9.01-11.91,9.01s-13.11-3.82-13.23-9.75h5.87c.11,3.59,2.91,5.42,7.3,5.42s6.44-1.88,6.44-4.05c0-1.54-1.03-2.39-2.34-3.02-2.57-1.25-6.04-1.6-9.06-2.45-5.93-1.71-7.18-4.62-7.18-7.52,0-4.85,3.48-8.15,11.52-8.15s11.52,3.48,11.8,9.24h-5.47Z"/>
  </g>
</svg>