<?xml version="1.0" encoding="utf-8"?>
<!-- Generator: Adobe Illustrator 27.2.0, SVG Export Plug-In . SVG Version: 6.00 Build 0)  -->
<svg version="1.1" id="Ebene_1" xmlns="http://www.w3.org/2000/svg" xmlns:xlink="http://www.w3.org/1999/xlink" x="0px" y="0px"
	 viewBox="0 0 282 74" style="enable-background:new 0 0 282 74;" xml:space="preserve">
<style type="text/css">
	.st0{fill:#2F4B78;}
</style>
<g>
	<g>
		<path class="st0" d="M103.05,45.98c-0.09-0.27-0.15-1.65-0.18-2.01c-0.78,1.32-2.43,2.4-5.13,2.4c-3.3,0-4.83-1.59-4.83-4.32
			c0-3.87,3.06-4.35,6.6-4.83c2.13-0.3,3.15-0.45,3.27-1.53c0-1.59-1.05-2.52-3.21-2.52c-2.31,0-3.24,1.11-3.39,2.85h-2.79
			c0.06-3.06,1.68-5.19,6.3-5.19c4.59,0,6.15,2.1,6.15,5.82v9.33H103.05z M102.84,38.37c-0.45,0.51-1.71,0.63-3.3,0.87
			c-2.37,0.39-3.63,0.9-3.63,2.73c0,1.47,0.84,2.25,2.55,2.25c2.49,0,4.26-1.62,4.35-3.72L102.84,38.37z"/>
		<path class="st0" d="M124.23,35.7c-0.18-1.77-1.08-2.58-3.45-2.58c-1.92,0-3.03,0.54-3.03,1.83c0,0.9,0.54,1.38,1.71,1.74
			c1.26,0.39,3.48,0.69,5.25,1.32c1.56,0.57,2.82,1.44,2.82,3.63c0,2.88-2.13,4.74-6.27,4.74c-4.32,0-6.9-2.01-6.96-5.13h3.09
			c0.06,1.89,1.53,2.85,3.84,2.85c2.37,0,3.39-0.99,3.39-2.13c0-0.81-0.54-1.26-1.23-1.59c-1.35-0.66-3.18-0.84-4.77-1.29
			c-3.12-0.9-3.78-2.43-3.78-3.96c0-2.55,1.83-4.29,6.06-4.29c4.32,0,6.06,1.83,6.21,4.86H124.23z"/>
		<path class="st0" d="M128.82,45.98V25.83h3v20.16H128.82z"/>
		<path class="st0" d="M133.74,29.46v-3.63h3v3.63H133.74z M133.74,45.98V31.23h3v14.76H133.74z"/>
		<path class="st0" d="M138.69,52.97V31.23h2.91v2.67c0.96-2.34,2.85-3.06,4.68-3.06c3.66,0,6.36,2.88,6.36,7.89
			c0,4.68-2.37,7.65-6.09,7.65c-2.04,0-3.87-0.9-4.89-3.12v9.72H138.69z M149.58,38.72c0-3.48-1.65-5.43-4.02-5.43
			c-2.25,0-4.02,1.8-4.02,5.28c0,3,1.32,5.25,4.08,5.25C148.17,43.83,149.58,41.93,149.58,38.72z"/>
		<path class="st0" d="M154.2,52.97V31.23h2.91v2.67c0.96-2.34,2.85-3.06,4.68-3.06c3.66,0,6.36,2.88,6.36,7.89
			c0,4.68-2.37,7.65-6.09,7.65c-2.04,0-3.87-0.9-4.89-3.12v9.72H154.2z M165.09,38.72c0-3.48-1.65-5.43-4.02-5.43
			c-2.25,0-4.02,1.8-4.02,5.28c0,3,1.32,5.25,4.08,5.25C163.68,43.83,165.09,41.93,165.09,38.72z"/>
		<path class="st0" d="M172.38,39.35C172.5,42.29,174,44,176.37,44c1.71,0,3.03-0.87,3.42-2.37h3.12c-0.9,3-3.03,4.74-6.54,4.74
			c-4.59,0-6.99-2.94-6.99-7.77c0-4.95,2.55-7.77,6.9-7.77c4.53,0,6.84,3.03,6.84,8.52H172.38z M180.03,37.43
			c-0.06-2.7-1.65-4.2-3.75-4.2c-2.16,0-3.69,1.59-3.81,4.2H180.03z"/>
		<path class="st0" d="M184.62,45.98V31.23h2.82v2.64c1.17-2.52,3.06-3.03,4.86-3.03h0.66v3.09c-0.33-0.06-0.69-0.09-1.08-0.09
			c-2.88,0-4.26,1.86-4.26,4.56v7.59H184.62z"/>
		<path class="st0" d="M204.27,43.58c-0.48,1.44-2.07,2.55-4.47,2.55c-3.18,0-5.49-1.98-5.49-5.55v-9.36h3v8.94
			c0,2.49,1.17,3.54,3.21,3.54c2.31,0,3.75-1.32,3.75-3.54v-8.94h3v15.09c0,4.26-2.79,6.66-6.78,6.66c-3.96,0-6.27-2.37-6.27-6.18
			h2.82c0,2.25,1.47,3.6,3.57,3.6c2.25,0,3.66-1.56,3.66-4.02V43.58z"/>
		<path class="st0" d="M225.69,35.7c-0.18-1.77-1.08-2.58-3.45-2.58c-1.92,0-3.03,0.54-3.03,1.83c0,0.9,0.54,1.38,1.71,1.74
			c1.26,0.39,3.48,0.69,5.25,1.32c1.56,0.57,2.82,1.44,2.82,3.63c0,2.88-2.13,4.74-6.27,4.74c-4.32,0-6.9-2.01-6.96-5.13h3.09
			c0.06,1.89,1.53,2.85,3.84,2.85c2.37,0,3.39-0.99,3.39-2.13c0-0.81-0.54-1.26-1.23-1.59c-1.35-0.66-3.18-0.84-4.77-1.29
			c-3.12-0.9-3.78-2.43-3.78-3.96c0-2.55,1.83-4.29,6.06-4.29c4.32,0,6.06,1.83,6.21,4.86H225.69z"/>
		<path class="st0" d="M230.28,45.98V25.83h3v20.16H230.28z"/>
		<path class="st0" d="M234.78,38.6c0-4.68,2.85-7.77,7.41-7.77c4.5,0,7.32,3.06,7.32,7.74c0,4.71-2.82,7.8-7.35,7.8
			C237.54,46.37,234.78,43.16,234.78,38.6z M246.48,38.6c0-3.36-1.5-5.22-4.29-5.22s-4.32,1.86-4.32,5.22s1.53,5.25,4.32,5.25
			C244.95,43.85,246.48,41.99,246.48,38.6z"/>
		<path class="st0" d="M251.07,52.97V31.23h2.91v2.67c0.96-2.34,2.85-3.06,4.68-3.06c3.66,0,6.36,2.88,6.36,7.89
			c0,4.68-2.37,7.65-6.09,7.65c-2.04,0-3.87-0.9-4.89-3.12v9.72H251.07z M261.96,38.72c0-3.48-1.65-5.43-4.02-5.43
			c-2.25,0-4.02,1.8-4.02,5.28c0,3,1.32,5.25,4.08,5.25C260.55,43.83,261.96,41.93,261.96,38.72z"/>
		<path class="st0" d="M269.25,39.35c0.12,2.94,1.62,4.65,3.99,4.65c1.71,0,3.03-0.87,3.42-2.37h3.12c-0.9,3-3.03,4.74-6.54,4.74
			c-4.59,0-6.99-2.94-6.99-7.77c0-4.95,2.55-7.77,6.9-7.77c4.53,0,6.84,3.03,6.84,8.52H269.25z M276.9,37.43
			c-0.06-2.7-1.65-4.2-3.75-4.2c-2.16,0-3.69,1.59-3.81,4.2H276.9z"/>
	</g>
	<path class="st0" d="M2,2v70h70V2H2z M47.24,32.92H34.45v9.5c0,2.92,1.03,4.61,3.53,4.61c2.45,0,3.57-1.65,3.57-4.51v-6.02h5.69
		v6.58c0,4.89-2.82,9.26-9.36,9.26c-6.77,0-9.45-4.33-9.45-9.31V22.34h6.02v6.25h12.79V32.92z"/>
</g>
</svg>
