<?xml version="1.0" encoding="utf-8"?>
<!-- Generator: Adobe Illustrator 27.2.0, SVG Export Plug-In . SVG Version: 6.00 Build 0)  -->
<svg version="1.1" id="Ebene_1" xmlns="http://www.w3.org/2000/svg" xmlns:xlink="http://www.w3.org/1999/xlink" x="0px" y="0px"
	 viewBox="0 0 443.95 107.06" style="enable-background:new 0 0 443.95 107.06;" xml:space="preserve">
<style type="text/css">
	.st0{fill:#08374E;}
	.st1{fill:#0A71B4;}
	.st2{fill:#223565;}
	.st3{fill:#020203;}
	.st4{fill:none;stroke:#75C2A9;stroke-width:0.75;stroke-linejoin:round;stroke-miterlimit:10;}
</style>
<g>
	<polygon class="st0" points="72.72,100.36 47.28,107.06 47.3,71.43 72.71,69.19 	"/>
	<polygon class="st1" points="72.71,69.19 47.3,71.43 47.31,35.77 72.7,38 	"/>
	<polygon class="st0" points="47.31,35.78 47.28,0 72.72,6.76 72.7,38 	"/>
	<polygon class="st1" points="43.57,35.78 43.6,0 18.15,6.76 18.17,38 	"/>
	<polygon class="st0" points="18.16,100.36 43.59,107.06 43.58,71.43 18.17,69.19 	"/>
	<polygon class="st2" points="18.17,69.19 43.58,71.43 43.57,35.77 18.17,38 	"/>
	<polygon class="st2" points="130.43,100.36 105,107.06 105.01,71.43 130.42,69.19 	"/>
	<polygon class="st0" points="130.42,69.19 105.01,71.43 105.02,35.77 130.42,38 	"/>
	<polygon class="st1" points="105.02,35.78 104.99,0 130.44,6.76 130.42,38 	"/>
	<polygon class="st2" points="101.28,35.78 101.31,0 75.87,6.76 75.89,38 	"/>
	<polygon class="st1" points="75.87,100.36 101.31,107.06 101.29,71.43 75.88,69.19 	"/>
	<polygon class="st0" points="75.88,69.19 101.29,71.43 101.28,35.77 75.89,38 	"/>
	<polygon class="st1" points="188.15,100.36 162.71,107.06 162.73,71.43 188.14,69.19 	"/>
	<polygon class="st2" points="188.14,69.19 162.73,71.43 162.73,35.77 188.13,38 	"/>
	<polygon class="st0" points="162.73,35.78 162.71,0 188.15,6.76 188.13,38 	"/>
	<polygon class="st2" points="159,35.78 159.03,0 133.58,6.76 133.6,38 	"/>
	<polygon class="st0" points="133.59,100.36 159.02,107.06 159,71.43 133.6,69.19 	"/>
	<polygon class="st1" points="133.6,69.19 159,71.43 159,35.77 133.6,38 	"/>
	<g>
		<path class="st3" d="M202.46,72.97V45.42h6.83v3.3c2.41-3.7,5.21-4.03,8.18-4.03h0.95v7.45c-0.67-0.11-1.34-0.17-2.02-0.17
			c-4.48,0-6.66,2.24-6.66,6.66v14.34H202.46z"/>
		<path class="st3" d="M219.94,42.12v-6.78h7.28v6.78H219.94z M219.94,72.97V45.42h7.28v27.55H219.94z"/>
		<path class="st3" d="M246.88,53.77c-0.39-2.69-1.85-3.64-5.15-3.64c-2.74,0-4.31,0.67-4.31,2.3s1.51,2.3,4.48,3.14
			c3.14,0.9,6.1,1.51,8.23,2.35c2.91,1.18,4.54,3.08,4.54,6.66c0,5.71-4.2,9.13-12.04,9.13c-8.46,0-13.16-3.98-13.27-9.58h7.5
			c0,2.58,2.18,4.09,5.71,4.09c2.58,0,4.87-0.78,4.87-2.86c0-1.96-2.07-2.58-4.42-3.14c-4.65-1.12-7.22-1.9-9.18-3.14
			c-2.58-1.62-3.47-3.75-3.47-6.22c0-4.65,3.19-8.18,11.59-8.18c7.95,0,11.54,3.14,11.93,9.07H246.88z"/>
		<path class="st3" d="M257.08,42.12v-6.78h7.28v6.78H257.08z M257.08,72.97V45.42h7.28v27.55H257.08z"/>
		<path class="st3" d="M285.47,72.97V56.29c0-4.26-1.23-5.43-4.7-5.43c-3.81,0-5.66,2.13-5.66,6.33v15.79h-7.28V45.42h6.94v4.03
			c1.68-3.08,4.48-4.76,8.9-4.76c5.26,0,9.13,3.19,9.13,9.18v19.1H285.47z"/>
		<path class="st3" d="M315.02,69.28c-1.01,2.46-3.98,3.92-7.56,3.92c-9.07,0-12.21-6.94-12.21-14.17c0-8.57,5.38-14.34,12.04-14.34
			c3.47,0,5.99,1.34,7.73,4.14v-3.42h7.28v27.83c0,8.29-6.05,12.77-13.72,12.77s-13.33-4.42-13.33-11.54h6.78
			c0,3.3,2.41,5.26,6.05,5.26c3.86,0,6.94-2.3,6.94-5.94V69.28z M315.25,59.87c0-5.99-2.07-8.85-6.22-8.85
			c-4.09,0-6.22,2.74-6.22,8.4c0,4.93,2.63,8.06,6.22,8.06C312.56,67.49,315.25,64.52,315.25,59.87z"/>
		<path class="st3" d="M355.57,53.77c-0.39-2.69-1.85-3.64-5.15-3.64c-2.74,0-4.31,0.67-4.31,2.3s1.51,2.3,4.48,3.14
			c3.14,0.9,6.1,1.51,8.23,2.35c2.91,1.18,4.54,3.08,4.54,6.66c0,5.71-4.2,9.13-12.04,9.13c-8.46,0-13.16-3.98-13.27-9.58h7.5
			c0,2.58,2.18,4.09,5.71,4.09c2.58,0,4.87-0.78,4.87-2.86c0-1.96-2.07-2.58-4.42-3.14c-4.65-1.12-7.22-1.9-9.18-3.14
			c-2.58-1.62-3.47-3.75-3.47-6.22c0-4.65,3.19-8.18,11.59-8.18c7.95,0,11.54,3.14,11.93,9.07H355.57z"/>
		<path class="st3" d="M371.71,61.1c0.22,4.14,2.58,6.83,6.16,6.83c2.35,0,4.42-1.18,4.93-3.08h7.5c-1.68,5.66-6.22,8.85-12.1,8.85
			c-9.18,0-13.78-5.04-13.78-15.01c0-8.51,4.87-14,13.33-14s12.94,5.49,12.94,16.41H371.71z M383.19,56.51
			c-0.11-4.09-2.8-6.05-5.66-6.05c-2.91,0-5.32,2.24-5.6,6.05H383.19z"/>
		<path class="st3" d="M409.91,72.97c-0.22-0.67-0.39-1.62-0.45-2.46c-1.74,1.9-4.65,3.19-8.34,3.19c-6.27,0-9.18-3.08-9.18-7.56
			c0-7.95,5.32-8.85,12.66-9.86c3.64-0.5,4.65-1.23,4.65-3.14c0-1.79-1.79-2.86-4.65-2.86c-3.3,0-4.65,1.62-4.98,4.09h-6.78
			c0.11-5.71,3.25-9.69,12.1-9.69c8.74,0,11.76,3.92,11.76,10.86v17.42H409.91z M409.41,59.48c-0.73,0.73-2.02,1.12-4.7,1.62
			c-4.14,0.78-5.49,1.96-5.49,4.31c0,2.07,1.23,3.08,3.53,3.08c3.75,0,6.55-2.74,6.61-5.99L409.41,59.48z"/>
		<path class="st3" d="M436.17,53.77c-0.39-2.69-1.85-3.64-5.15-3.64c-2.74,0-4.31,0.67-4.31,2.3s1.51,2.3,4.48,3.14
			c3.14,0.9,6.1,1.51,8.23,2.35c2.91,1.18,4.54,3.08,4.54,6.66c0,5.71-4.2,9.13-12.04,9.13c-8.46,0-13.16-3.98-13.27-9.58h7.5
			c0,2.58,2.18,4.09,5.71,4.09c2.58,0,4.87-0.78,4.87-2.86c0-1.96-2.07-2.58-4.42-3.14c-4.65-1.12-7.22-1.9-9.18-3.14
			c-2.58-1.62-3.47-3.75-3.47-6.22c0-4.65,3.19-8.18,11.59-8.18c7.95,0,11.54,3.14,11.93,9.07H436.17z"/>
	</g>
	<line class="st4" x1="0" y1="91.71" x2="18.17" y2="91.71"/>
	<line class="st4" x1="188.14" y1="91.71" x2="443.95" y2="91.71"/>
</g>
</svg>
