<?xml version="1.0" encoding="UTF-8" standalone="no"?>
<svg
   id="Ebene_1"
   data-name="Ebene 1"
   viewBox="0 0 454.61021 107.06"
   version="1.1"
   sodipodi:docname="trevalabs-header-new_line.svg"
   width="454.6102"
   height="107.06"
   inkscape:version="1.2.2 (b0a84865, 2022-12-01)"
   xmlns:inkscape="http://www.inkscape.org/namespaces/inkscape"
   xmlns:sodipodi="http://sodipodi.sourceforge.net/DTD/sodipodi-0.dtd"
   xmlns="http://www.w3.org/2000/svg"
   xmlns:svg="http://www.w3.org/2000/svg">
  <sodipodi:namedview
     id="namedview260"
     pagecolor="#ffffff"
     bordercolor="#000000"
     borderopacity="0.25"
     inkscape:showpageshadow="2"
     inkscape:pageopacity="0.0"
     inkscape:pagecheckerboard="0"
     inkscape:deskcolor="#d1d1d1"
     showgrid="false"
     inkscape:zoom="1.361331"
     inkscape:cx="232.86033"
     inkscape:cy="52.154838"
     inkscape:window-width="1317"
     inkscape:window-height="417"
     inkscape:window-x="47"
     inkscape:window-y="206"
     inkscape:window-maximized="0"
     inkscape:current-layer="Ebene_1" />
  <defs
     id="defs197">
    <style
       id="style195">
      .cls-1 {
        fill: #010101;
      }

      .cls-2 {
        fill: #0f70b3;
      }

      .cls-3 {
        fill: #233566;
      }

      .cls-4 {
        fill: #08374e;
      }
    </style>
  </defs>
  <rect
     style="fill:#70c6ab;stroke-width:1.50301;fill-opacity:1"
     id="rect472"
     width="454.6102"
     height="1.2423035"
     x="0"
     y="-92.495018"
     transform="scale(1,-1)" />
  <rect
     style="fill:#ffffff;fill-opacity:1"
     id="rect1929"
     width="165.28714"
     height="13.447089"
     x="15.688271"
     y="84.989517" />
  <g
     id="g235"
     transform="translate(12.893238)">
    <polygon
       class="cls-4"
       points="54.57,100.36 29.13,107.06 29.15,71.43 54.56,69.19 "
       id="polygon199" />
    <polygon
       class="cls-2"
       points="54.56,69.19 29.15,71.43 29.15,35.77 54.55,38 "
       id="polygon201" />
    <polygon
       class="cls-4"
       points="29.15,35.77 29.13,0 54.57,6.76 54.55,38 "
       id="polygon203" />
    <polygon
       class="cls-2"
       points="25.42,35.77 25.44,0 0,6.76 0.02,38 "
       id="polygon205" />
    <polygon
       class="cls-4"
       points="0,100.36 25.44,107.06 25.42,71.43 0.01,69.19 "
       id="polygon207" />
    <polygon
       class="cls-3"
       points="0.01,69.19 25.42,71.43 25.42,35.77 0.02,38 "
       id="polygon209" />
    <polygon
       class="cls-3"
       points="112.28,100.36 86.85,107.06 86.86,71.43 112.27,69.19 "
       id="polygon211" />
    <polygon
       class="cls-4"
       points="112.27,69.19 86.86,71.43 86.87,35.77 112.26,38 "
       id="polygon213" />
    <polygon
       class="cls-2"
       points="86.87,35.77 86.84,0 112.29,6.76 112.26,38 "
       id="polygon215" />
    <polygon
       class="cls-3"
       points="83.13,35.77 83.16,0 57.71,6.76 57.74,38 "
       id="polygon217" />
    <polygon
       class="cls-2"
       points="57.72,100.36 83.15,107.06 83.14,71.43 57.73,69.19 "
       id="polygon219" />
    <polygon
       class="cls-4"
       points="57.73,69.19 83.14,71.43 83.13,35.77 57.74,38 "
       id="polygon221" />
    <polygon
       class="cls-2"
       points="170,100.36 144.56,107.06 144.58,71.43 169.99,69.19 "
       id="polygon223" />
    <polygon
       class="cls-3"
       points="169.99,69.19 144.58,71.43 144.58,35.77 169.98,38 "
       id="polygon225" />
    <polygon
       class="cls-4"
       points="144.58,35.77 144.56,0 170,6.76 169.98,38 "
       id="polygon227" />
    <polygon
       class="cls-3"
       points="140.85,35.77 140.87,0 115.43,6.76 115.45,38 "
       id="polygon229" />
    <polygon
       class="cls-4"
       points="115.43,100.36 140.87,107.06 140.85,71.43 115.44,69.19 "
       id="polygon231" />
    <polygon
       class="cls-2"
       points="115.44,69.19 140.85,71.43 140.85,35.77 115.45,38 "
       id="polygon233" />
  </g>
  <g
     id="g257"
     transform="translate(12.893238)">
    <path
       class="cls-1"
       d="M 185.15,72.97 V 44.92 h 5.36 v 5.02 c 2.22,-4.79 5.81,-5.76 9.24,-5.76 H 201 v 5.87 c -0.63,-0.11 -1.31,-0.17 -2.05,-0.17 -5.47,0 -8.09,3.53 -8.09,8.67 v 14.42 h -5.7 z"
       id="path237" />
    <path
       class="cls-1"
       d="m 203.56,41.56 v -6.9 h 5.7 v 6.9 z m 0,31.41 V 44.92 h 5.7 v 28.05 z"
       id="path239" />
    <path
       class="cls-1"
       d="m 230.87,53.42 c -0.34,-3.36 -2.05,-4.9 -6.56,-4.9 -3.65,0 -5.76,1.03 -5.76,3.48 0,1.71 1.03,2.62 3.25,3.31 2.39,0.74 6.61,1.31 9.98,2.51 2.96,1.08 5.36,2.74 5.36,6.9 0,5.47 -4.05,9.01 -11.91,9.01 -7.86,0 -13.11,-3.82 -13.23,-9.75 h 5.87 c 0.11,3.59 2.91,5.42 7.3,5.42 4.39,0 6.44,-1.88 6.44,-4.05 0,-1.54 -1.03,-2.39 -2.34,-3.02 -2.56,-1.25 -6.04,-1.6 -9.06,-2.45 -5.93,-1.71 -7.18,-4.62 -7.18,-7.52 0,-4.85 3.48,-8.15 11.52,-8.15 8.04,0 11.52,3.48 11.8,9.24 h -5.47 z"
       id="path241" />
    <path
       class="cls-1"
       d="m 239.76,41.56 v -6.9 h 5.7 v 6.9 z m 0,31.41 V 44.92 h 5.7 v 28.05 z"
       id="path243" />
    <path
       class="cls-1"
       d="M 268.26,72.97 V 55.7 c 0,-5.07 -1.94,-6.67 -5.76,-6.67 -5.7,0 -7.64,3.59 -7.64,9.41 v 14.54 h -5.7 V 44.93 h 5.47 v 5.59 c 1.65,-4.33 5.24,-6.33 9.81,-6.33 5.53,0 9.52,2.96 9.52,9.69 v 19.1 h -5.7 z"
       id="path245" />
    <path
       class="cls-1"
       d="m 298.13,67.62 c -1.25,3.99 -4.9,5.59 -9.01,5.59 -8.27,0 -12.14,-6.44 -12.14,-14.25 0,-9.23 5.42,-14.76 12.31,-14.76 3.71,0 7.13,1.6 8.84,5.81 v -5.07 h 5.7 v 28.33 c 0,8.44 -5.99,13 -13.62,13 -7.63,0 -13.23,-4.5 -13.23,-11.74 h 5.36 c 0,4.33 3.14,6.84 7.53,6.84 4.62,0 8.27,-2.85 8.27,-7.64 v -6.1 z m 0.17,-8.78 c 0,-6.04 -2.85,-9.63 -7.75,-9.63 -4.9,0 -7.64,3.42 -7.64,9.58 0,6.56 3.19,9.92 7.7,9.92 4.51,0 7.7,-3.53 7.7,-9.86 z"
       id="path247" />
    <path
       class="cls-1"
       d="m 338.77,53.42 c -0.34,-3.36 -2.05,-4.9 -6.56,-4.9 -3.65,0 -5.76,1.03 -5.76,3.48 0,1.71 1.03,2.62 3.25,3.31 2.39,0.74 6.61,1.31 9.98,2.51 2.96,1.08 5.36,2.74 5.36,6.9 0,5.47 -4.05,9.01 -11.91,9.01 -7.86,0 -13.11,-3.82 -13.23,-9.75 h 5.87 c 0.11,3.59 2.91,5.42 7.3,5.42 4.39,0 6.44,-1.88 6.44,-4.05 0,-1.54 -1.03,-2.39 -2.34,-3.02 -2.57,-1.25 -6.04,-1.6 -9.06,-2.45 -5.93,-1.71 -7.18,-4.62 -7.18,-7.52 0,-4.85 3.48,-8.15 11.52,-8.15 8.04,0 11.52,3.48 11.8,9.24 h -5.47 z"
       id="path249" />
    <path
       class="cls-1"
       d="m 352.56,60.38 c 0.23,5.59 3.08,8.84 7.58,8.84 3.25,0 5.76,-1.65 6.5,-4.5 h 5.93 c -1.71,5.7 -5.76,9.01 -12.43,9.01 -8.72,0 -13.28,-5.59 -13.28,-14.77 0,-9.18 4.85,-14.76 13.11,-14.76 8.26,0 13,5.76 13,16.19 h -20.41 z m 14.54,-3.65 c -0.11,-5.13 -3.14,-7.98 -7.13,-7.98 -3.99,0 -7.01,3.02 -7.24,7.98 z"
       id="path251" />
    <path
       class="cls-1"
       d="m 394.34,72.97 c -0.17,-0.51 -0.29,-3.14 -0.34,-3.82 -1.48,2.51 -4.62,4.56 -9.75,4.56 -6.27,0 -9.18,-3.02 -9.18,-8.21 0,-7.35 5.81,-8.27 12.54,-9.18 4.05,-0.57 5.99,-0.85 6.21,-2.91 0,-3.02 -2,-4.79 -6.1,-4.79 -4.39,0 -6.16,2.11 -6.44,5.42 h -5.3 c 0.11,-5.81 3.19,-9.86 11.97,-9.86 8.78,0 11.69,3.99 11.69,11.06 v 17.73 z m -0.4,-14.48 c -0.85,0.97 -3.25,1.2 -6.27,1.65 -4.5,0.74 -6.9,1.71 -6.9,5.19 0,2.79 1.6,4.28 4.85,4.28 4.73,0 8.09,-3.08 8.27,-7.07 l 0.06,-4.05 z"
       id="path253" />
    <path
       class="cls-1"
       d="m 421.13,53.42 c -0.34,-3.36 -2.05,-4.9 -6.56,-4.9 -3.65,0 -5.76,1.03 -5.76,3.48 0,1.71 1.03,2.62 3.25,3.31 2.39,0.74 6.61,1.31 9.98,2.51 2.96,1.08 5.36,2.74 5.36,6.9 0,5.47 -4.05,9.01 -11.91,9.01 -7.86,0 -13.11,-3.82 -13.23,-9.75 h 5.87 c 0.11,3.59 2.91,5.42 7.3,5.42 4.39,0 6.44,-1.88 6.44,-4.05 0,-1.54 -1.03,-2.39 -2.34,-3.02 -2.57,-1.25 -6.04,-1.6 -9.06,-2.45 -5.93,-1.71 -7.18,-4.62 -7.18,-7.52 0,-4.85 3.48,-8.15 11.52,-8.15 8.04,0 11.52,3.48 11.8,9.24 h -5.47 z"
       id="path255" />
  </g>
</svg>
